<?xml version="1.0" encoding="utf-8"?>
<!-- Generator: Adobe Illustrator 23.1.0, SVG Export Plug-In . SVG Version: 6.00 Build 0)  -->
<svg version="1.1" id="Layer_1" xmlns="http://www.w3.org/2000/svg" xmlns:xlink="http://www.w3.org/1999/xlink" x="0px" y="0px"
	 viewBox="0 0 500 500" style="enable-background:new 0 0 500 500;" xml:space="preserve">
<style type="text/css">
	.st0{fill:#E6E6E6;}
	.st1{fill:#37474F;}
	.st2{fill:#455A64;}
	.st3{fill:#4D84FD;}
	.st4{opacity:0.6;enable-background:new    ;}
	.st5{opacity:0.5;enable-background:new    ;}
	.st6{opacity:0.4;enable-background:new    ;}
	.st7{opacity:0.15;enable-background:new    ;}
	.st8{fill:#263238;}
	.st9{fill:#E0E0E0;}
	.st10{fill:#F5F5F5;}
	.st11{fill:#EBEBEB;}
	.st12{fill:#FFFFFF;}
	.st13{opacity:0.5;fill:#FFFFFF;enable-background:new    ;}
	.st14{opacity:0.5;}
	.st15{opacity:0.9;fill:#263238;enable-background:new    ;}
	.st16{opacity:0.6;fill:#FFFFFF;enable-background:new    ;}
	.st17{opacity:0.6;}
	.st18{opacity:0.8;fill:#FFFFFF;enable-background:new    ;}
	.st19{opacity:0.8;}
	.st20{opacity:0.9;}
	.st21{opacity:0.6;fill:#4D84FD;enable-background:new    ;}
	.st22{opacity:0.7;}
	.st23{opacity:0.3;}
	.st24{opacity:0.25;}
	.st25{opacity:0.1;enable-background:new    ;}
	.st26{fill:#FFA8A7;}
	.st27{fill:#FAFAFA;}
	.st28{opacity:0.4;}
	.st29{fill:#F28F8F;}
	.st30{opacity:0.75;fill:#FFFFFF;enable-background:new    ;}
	.st31{opacity:0.1;fill:#4D84FD;enable-background:new    ;}
	.st32{opacity:0.3;enable-background:new    ;}
	.st33{opacity:0.2;enable-background:new    ;}
</style>
<g id="freepik--Shadows--inject-11">
	<path id="freepik--Shadow--inject-11" class="st0" d="M90.8,342.4c-0.1-0.5,0.2-1.1,0.7-1.2l180.2-104c1.1-0.5,2.3-0.5,3.4,0
		l125,72.2c0.4,0.1,0.6,0.4,0.7,0.7c0.1,0.5-0.2,1.1-0.7,1.2l-180.2,104c-1.1,0.5-2.3,0.5-3.4,0l-125-72.2
		C91.2,343.1,90.9,342.8,90.8,342.4z"/>
	<ellipse id="freepik--shadow--inject-11" class="st0" cx="382" cy="412.4" rx="75.1" ry="43.4"/>
	<ellipse class="st0" cx="290.6" cy="362.1" rx="59.1" ry="34.1"/>
	<ellipse class="st0" cx="159.1" cy="407.9" rx="37.1" ry="21.4"/>
</g>
<g id="freepik--Desk--inject-11">
	<g id="freepik--desk--inject-11">
		<g id="freepik--Table--inject-11">
			<path class="st1" d="M214.9,285.7l2.4,1.4c0.7,0.4,1.5,0.4,2.2,0l2.4-1.4c0.6-0.4,1.1-0.1,1.1,0.6v111c0,0.8-0.5,1.5-1.1,1.9
				l-2.4,1.4c-0.7,0.4-1.5,0.4-2.2,0l-2.4-1.4c-0.7-0.4-1.1-1.2-1.1-1.9v-111C213.8,285.6,214.3,285.4,214.9,285.7z"/>
			<path class="st2" d="M218.4,400V289c0.1-0.8,0.5-1.5,1.1-1.9l2.4-1.4c0.6-0.4,1.1-0.1,1.1,0.6v111c0,0.8-0.5,1.5-1.1,1.9
				l-2.4,1.4C218.9,401,218.4,400.7,218.4,400z"/>
			<path class="st1" d="M113.4,227.1l2.4,1.4c0.7,0.4,1.5,0.4,2.2,0l2.4-1.4c0.6-0.4,1.1-0.1,1.1,0.6v111c0,0.8-0.5,1.5-1.1,1.9
				L118,342c-0.7,0.4-1.5,0.4-2.2,0l-2.4-1.4c-0.7-0.4-1.1-1.2-1.1-1.9V227.7C112.3,227,112.8,226.7,113.4,227.1z"/>
			<path class="st2" d="M116.9,341.3V230.4c0-0.8,0.5-1.5,1.1-1.9l2.4-1.4c0.6-0.4,1.1-0.1,1.1,0.6v111c0,0.8-0.5,1.5-1.1,1.9
				L118,342C117.4,342.3,116.9,342,116.9,341.3z"/>
			<path class="st1" d="M351.6,206.8l2.4,1.4c0.7,0.4,1.5,0.4,2.2,0l2.4-1.4c0.6-0.4,1.1-0.1,1.1,0.6v111c0,0.8-0.5,1.5-1.1,1.9
				l-2.4,1.4c-0.7,0.4-1.5,0.4-2.2,0l-2.4-1.4c-0.7-0.4-1.1-1.2-1.1-1.9v-111C350.5,206.8,351,206.5,351.6,206.8z"/>
			<path class="st2" d="M355.1,321.1V210.1c0-0.8,0.5-1.5,1.1-1.9l2.4-1.4c0.6-0.4,1.1-0.1,1.1,0.6v111c0,0.8-0.5,1.5-1.1,1.9
				l-2.4,1.4C355.6,322.1,355.1,321.8,355.1,321.1z"/>
			<path class="st3" d="M92.2,239.1l110.1,63.7c1.3,0.6,2.8,0.6,4.1,0l179-103.3c1.2-0.8,1.9-2.1,2-3.5v-0.9c-0.1-1.4-0.8-2.7-2-3.5
				L275.3,128c-1.3-0.7-2.8-0.7-4.1,0l-179,103.3c-1.2,0.8-1.9,2.1-2,3.5v0.8C90.3,237,91,238.3,92.2,239.1z"/>
			<path class="st4" d="M92.2,239.1l110.1,63.7c1.3,0.6,2.8,0.6,4.1,0l179-103.3c1.2-0.8,1.9-2.1,2-3.5v-0.9c-0.1-1.4-0.8-2.7-2-3.5
				L275.3,128c-1.3-0.7-2.8-0.7-4.1,0l-179,103.3c-1.2,0.8-1.9,2.1-2,3.5v0.8C90.3,237,91,238.3,92.2,239.1z"/>
			<path class="st3" d="M202.4,297.2L92.2,233.6c-1-0.6-1.1-1.5-0.4-2.1c-1,0.8-1.6,2-1.7,3.3v0.8c0.1,1.4,0.8,2.7,2,3.5l110.2,63.6
				c0.6,0.3,1.3,0.5,2,0.5v-5.5C203.7,297.7,203,297.6,202.4,297.2z"/>
			<path class="st5" d="M202.4,297.2L92.2,233.6c-1-0.6-1.1-1.5-0.4-2.1c-1,0.8-1.6,2-1.7,3.3v0.8c0.1,1.4,0.8,2.7,2,3.5l110.2,63.6
				c0.6,0.3,1.3,0.5,2,0.5v-5.5C203.7,297.7,203,297.6,202.4,297.2z"/>
			<path class="st3" d="M91.4,232.8c-0.2-0.6,0.1-1.4,0.8-1.6l179-103.3c1.3-0.7,2.8-0.7,4.1,0l110.1,63.6c0.4,0.1,0.7,0.4,0.8,0.8
				c0.2,0.6-0.1,1.4-0.8,1.6l-179,103.2c-1.3,0.7-2.8,0.7-4.1,0L92.2,233.6C91.8,233.5,91.6,233.2,91.4,232.8z"/>
			<path class="st6" d="M91.4,232.8c-0.2-0.6,0.1-1.4,0.8-1.6l179-103.3c1.3-0.7,2.8-0.7,4.1,0l110.1,63.6c0.4,0.1,0.7,0.4,0.8,0.8
				c0.2,0.6-0.1,1.4-0.8,1.6l-179,103.2c-1.3,0.7-2.8,0.7-4.1,0L92.2,233.6C91.8,233.5,91.6,233.2,91.4,232.8z"/>
		</g>
		<g id="freepik--Keyboard--inject-11">
			<path class="st7" d="M217.4,231.7c-0.2-0.5,0-1,0.5-1.2l77.1-44.4c0.9-0.5,2-0.5,2.9,0l26.1,15.1c0.3,0.1,0.5,0.3,0.6,0.6
				c0.2,0.5-0.1,1-0.6,1.1l-77.1,44.4c-0.9,0.5-2,0.5-2.9,0l-26.1-15.1C217.7,232.1,217.5,232,217.4,231.7z"/>
			<g id="freepik--keyboard--inject-11">
				<path class="st8" d="M322.4,201.2c0,0.4-0.3,0.7-0.6,0.8L247,245.2c-0.9,0.5-2,0.5-2.9,0l-24.5-14.1c-0.3-0.1-0.6-0.5-0.6-0.8
					v-2.6c0-0.4,0.3-0.7,0.6-0.9l74.8-43.3c0.9-0.5,2-0.5,2.9,0l24.5,14.1c0.3,0.1,0.6,0.5,0.6,0.8V201.2z"/>
				<path class="st1" d="M247,242.6l74.8-43.2c0.3-0.1,0.5-0.3,0.6-0.6c0.2-0.5-0.1-1-0.6-1.1l-24.5-14.1c-0.9-0.5-2-0.5-2.9,0
					l-74.8,43.3c-0.3,0.1-0.5,0.3-0.6,0.6c-0.2,0.5,0.1,1,0.6,1.1l24.5,14.1C245,243,246.1,243,247,242.6z"/>
				<path class="st8" d="M244.1,242.6l-24.5-14.1c-0.3-0.1-0.6-0.5-0.6-0.9v2.6c0,0.4,0.3,0.7,0.6,0.9l24.5,14.1
					c0.4,0.2,0.9,0.3,1.4,0.3v-2.6C245,242.9,244.5,242.8,244.1,242.6z"/>
				<path class="st3" d="M317.9,198.8l-3.3,1.9l-2.4-1.4l3.3-1.9L317.9,198.8L317.9,198.8L317.9,198.8z M314.1,196.5l-2.6,1.5
					l-2.4-1.4l2.6-1.5L314.1,196.5L314.1,196.5L314.1,196.5z M313.3,201.4l-2.6,1.5l-2.4-1.4l2.6-1.5L313.3,201.4L313.3,201.4
					L313.3,201.4z M310.3,194.4l-4.2,2.4l-2.4-1.4l4.2-2.4L310.3,194.4L310.3,194.4L310.3,194.4z M310.2,198.8l-2,1.2l-2.4-1.4
					l2.1-1.2L310.2,198.8L310.2,198.8L310.2,198.8z M309.4,203.7l-2.6,1.5l-2.5-1.4l2.6-1.5L309.4,203.7L309.4,203.7L309.4,203.7z
					 M306.9,200.8l-2,1.2l-2.4-1.4l2-1.2L306.9,200.8L306.9,200.8L306.9,200.8z M306.5,192.2l-3.3,1.9l-2.4-1.4l3.3-1.9L306.5,192.2
					L306.5,192.2L306.5,192.2z M305.5,206l-18.7,10.8l-2.4-1.4l18.7-10.8L305.5,206L305.5,206L305.5,206z M304.9,197.6l-2,1.2
					l-2.4-1.4l2-1.2L304.9,197.6L304.9,197.6L304.9,197.6z M303.5,202.8l-2,1.2l-2.4-1.4l2-1.2L303.5,202.8L303.5,202.8L303.5,202.8
					z M302.7,190l-2,1.2l-2.4-1.4l2.1-1.2L302.7,190L302.7,190L302.7,190z M301.9,194.8l-2.1,1.2l-2.4-1.4l2.1-1.2L301.9,194.8
					L301.9,194.8L301.9,194.8z M301.5,199.5l-2.1,1.2l-2.4-1.4l2.1-1.2L301.5,199.5L301.5,199.5L301.5,199.5z M300.1,204.7l-2,1.2
					l-2.4-1.4l2-1.2L300.1,204.7L300.1,204.7L300.1,204.7z M299.3,192l-2,1.2l-2.4-1.4l2.1-1.2L299.3,192L299.3,192L299.3,192z
					 M298.6,196.8l-2,1.2l-2.4-1.4l2.1-1.2L298.6,196.8L298.6,196.8L298.6,196.8z M298.1,201.5l-2,1.2l-2.4-1.4l2-1.2L298.1,201.5
					L298.1,201.5L298.1,201.5z M298.1,187.4l-2.6,1.5l-2.5-1.4l2.6-1.5L298.1,187.4L298.1,187.4L298.1,187.4z M296.8,206.6l-2.1,1.2
					l-2.4-1.4l2.1-1.2L296.8,206.6L296.8,206.6L296.8,206.6z M296,193.8l-2.1,1.2l-2.4-1.3l2.1-1.2L296,193.8L296,193.8L296,193.8z
					 M295.2,198.7l-2.1,1.3l-2.4-1.4l2.1-1.2L295.2,198.7L295.2,198.7L295.2,198.7z M294.8,203.4l-2.1,1.2l-2.4-1.4l2.1-1.2
					L294.8,203.4L294.8,203.4L294.8,203.4z M293.4,208.6l-2,1.2l-2.4-1.4l2-1.2L293.4,208.6L293.4,208.6L293.4,208.6z M292.8,190.5
					l-2.1,1.2l-2.4-1.4l2.1-1.2L292.8,190.5L292.8,190.5L292.8,190.5z M292.6,195.8l-2,1.2l-2.4-1.4l2.1-1.2L292.6,195.8
					L292.6,195.8L292.6,195.8z M291.8,200.7l-2,1.2l-2.4-1.4l2.1-1.2L291.8,200.7L291.8,200.7L291.8,200.7z M291.4,205.4l-2,1.2
					l-2.4-1.4l2-1.2L291.4,205.4L291.4,205.4L291.4,205.4z M290.1,210.4l-2.1,1.2l-2.4-1.4l2-1.2L290.1,210.4L290.1,210.4
					L290.1,210.4z M289.3,192.4l-2,1.2l-2.4-1.4l2.1-1.2L289.3,192.4L289.3,192.4L289.3,192.4z M289.2,197.7l-2,1.2l-2.4-1.4
					l2.1-1.2L289.2,197.7L289.2,197.7L289.2,197.7z M288.5,202.7l-2.1,1.2l-2.4-1.4l2.1-1.2L288.5,202.7L288.5,202.7L288.5,202.7z
					 M288,207.3l-2.1,1.2l-2.4-1.4l2-1.2L288,207.3L288,207.3L288,207.3z M286.7,212.4l-2,1.2l-2.4-1.4l2-1.2L286.7,212.4
					L286.7,212.4L286.7,212.4z M286,194.4l-2,1.2l-2.4-1.4l2-1.2L286,194.4L286,194.4L286,194.4z M285.9,199.8l-2,1.2l-2.5-1.4
					l2-1.2L285.9,199.8L285.9,199.8L285.9,199.8z M285.5,217.5L283,219l-2.4-1.4l2.6-1.5L285.5,217.5L285.5,217.5L285.5,217.5z
					 M285.1,204.6l-2,1.2l-2.4-1.4l2.1-1.2L285.1,204.6L285.1,204.6L285.1,204.6z M284.7,209.2l-2,1.2l-2.4-1.4l2-1.1L284.7,209.2
					L284.7,209.2L284.7,209.2z M283.3,214.4l-2,1.2l-2.5-1.4l2.1-1.2L283.3,214.4L283.3,214.4L283.3,214.4z M282.7,196.3l-2,1.2
					l-2.4-1.4l2-1.1L282.7,196.3L282.7,196.3L282.7,196.3z M282.6,201.7l-2,1.2l-2.4-1.4l2-1.2L282.6,201.7L282.6,201.7L282.6,201.7
					z M281.8,206.5l-2,1.2l-2.4-1.4l2-1.2L281.8,206.5L281.8,206.5L281.8,206.5z M281.7,219.8l-2.6,1.5l-2.4-1.4l2.6-1.5
					L281.7,219.8L281.7,219.8L281.7,219.8z M281.2,211.1l-2,1.2l-2.3-1.4l2-1.2L281.2,211.1L281.2,211.1L281.2,211.1z M280,216.3
					l-2,1.2l-2.5-1.4l2.1-1.2L280,216.3L280,216.3L280,216.3z M279.2,203.5l-2,1.3l-2.4-1.4l2-1.2L279.2,203.5L279.2,203.5
					L279.2,203.5z M278.4,208.5l-2,1.2l-2.4-1.4l2-1.2L278.4,208.5L278.4,208.5L278.4,208.5z M277.9,213l-2,1.3l-2.4-1.4l2-1.2
					L277.9,213L277.9,213L277.9,213z M277.8,199l-2,1.3l-2.4-1.4l2-1.2L277.8,199L277.8,199L277.8,199z M277.8,221.9l-2.6,1.5
					l-2.5-1.3l2.6-1.5L277.8,221.9L277.8,221.9L277.8,221.9z M276.6,218.3l-2,1.2l-2.5-1.4l2.1-1.2L276.6,218.3L276.6,218.3
					L276.6,218.3z M275.8,205.6l-2,1.2l-2.4-1.4l2.1-1.2L275.8,205.6L275.8,205.6L275.8,205.6z M275,210.4l-2,1.2l-2.4-1.4l2-1.2
					L275,210.4L275,210.4L275,210.4z M274.6,215l-2,1.3l-2.5-1.4l2.1-1.2L274.6,215L274.6,215L274.6,215z M274.4,201.1l-2,1.2
					l-2.4-1.4l2-1.2L274.4,201.1L274.4,201.1L274.4,201.1z M273.9,224.3l-3.3,1.9l-2.4-1.4l3.3-1.9L273.9,224.3L273.9,224.3
					L273.9,224.3z M273.2,220.1l-6.4,3.9l-2.4-1.4l6.5-3.7l2.4,1.4l0,0L273.2,220.1z M272.5,207.6l-2,1.2l-2.4-1.4l2-1.2
					L272.5,207.6L272.5,207.6L272.5,207.6z M271.7,212.3l-2,1.2l-2.4-1.4l2-1l2.4,1.4l0,0L271.7,212.3z M271.2,216.9l-2,1.2
					l-2.5-1.3l2.1-1.2l2.4,1.4l0,0L271.2,216.9z M271.1,203.1l-2,1.2l-2.4-1.4l2-1.2L271.1,203.1L271.1,203.1L271.1,203.1z
					 M269.1,209.6l-2,1.2l-2.4-1.4l2-1.2L269.1,209.6L269.1,209.6L269.1,209.6z M268.5,227.4l-2,1.2l-2.5-1.4l2.1-1.2L268.5,227.4
					L268.5,227.4L268.5,227.4z M268.2,214.2l-2,1.2l-2.3-1.2l2-1.2l2.4,1.4l0,0L268.2,214.2z M267.9,219.1l-4.9,2.8l-6.2-3.6
					l2.4-1.4l3.2,1.8c0.2,0.1,0.4,0.1,0.6,0.1c0.2,0,0.4,0,0.6-0.1l1.9-1.1L267.9,219.1L267.9,219.1L267.9,219.1z M267.8,204.8
					l-2,1.2l-2.4-1.2l2-1.2l2.4,1.4l0,0L267.8,204.8z M265.7,211.6l-2,1.2l-2.4-1.4l2.1-1.2L265.7,211.6L265.7,211.6L265.7,211.6z
					 M265.2,229.4l-2,1.2l-2.5-1.4l2.1-1.2L265.2,229.4L265.2,229.4L265.2,229.4z M265,216.4l-2,1.2l-2.4-1.4l2-1.2L265,216.4
					L265,216.4L265,216.4z M263,207.9l-2,1.2l-2.5-1.4l2.1-1.2L263,207.9L263,207.9L263,207.9z M262.4,213.5l-2,1.2l-2.4-1.4
					l2.1-1.2L262.4,213.5L262.4,213.5L262.4,213.5z M261.8,231.4l-2,1.2l-2.5-1.4l2-1.2L261.8,231.4L261.8,231.4L261.8,231.4z
					 M261.4,227l-2,1.4l-2.5-1.4l2.1-1.2l2.4,1.4l0,0L261.4,227z M259.6,209.8l-2,1.2l-2.4-1.4l2-1.2L259.6,209.8L259.6,209.8
					L259.6,209.8z M259.1,215.4l-3.6,2.1l-2.4-1.4l3.6-2.1L259.1,215.4L259.1,215.4L259.1,215.4z M257.8,233.7l-5.4,3.1l-2.5-1.4
					l5.4-3.1L257.8,233.7L257.8,233.7L257.8,233.7z M257.2,220.9l-2,1.2l-2.4-1.4l2-1.2L257.2,220.9L257.2,220.9L257.2,220.9z
					 M256.2,211.5l-2,1.2l-2.4-1.2l2-1.2l2.4,1.4l0,0L256.2,211.5z M254,231.5l-2,1.2l-2.4-1.4l2-1.2L254,231.5L254,231.5L254,231.5
					z M253.8,222.8l-2,1.2l-2.4-1.4l2-1.2L253.8,222.8L253.8,222.8L253.8,222.8z M253.4,218.7l-2,1.2l-2.4-1.4l2-1.2L253.4,218.7
					L253.4,218.7L253.4,218.7z M252.9,213.7l-2,1.2l-2.4-1.4l2-1.2L252.9,213.7L252.9,213.7L252.9,213.7z M251,237.6l-2,1.2
					l-2.5-1.4l2.1-1.2L251,237.6L251,237.6L251,237.6z M250.6,233.5l-2,1.2l-2.4-1.4l2-1.2L250.6,233.5L250.6,233.5L250.6,233.5z
					 M250.5,224.8l-2,1.2l-2.4-1.4l2-1.2L250.5,224.8L250.5,224.8L250.5,224.8z M250.2,229.4l-2,1.2l-2.4-1.4l2-1.2L250.2,229.4
					L250.2,229.4L250.2,229.4z M250,220.7l-2,1.2l-2.4-1.4l2-1.2L250,220.7L250,220.7L250,220.7z M248.7,215.8l-2,1.2l-2.4-1.2
					l2.1-1.2l2.4,1.4l0,0L248.7,215.8z M247.7,239.6l-2.1,1.2l-6.2-3.6l2-1.2L247.7,239.6L247.7,239.6L247.7,239.6z M247.2,235.1
					l-2,1.2l-2.4-1.2l2-1.2l2.4,1.4l0,0L247.2,235.1z M246.8,231l-2,1.5l-2.4-1.4l2-1.2l2.4,1.4l0,0L246.8,231z M246.7,222.6l-2,1.2
					l-2.4-1.4l2-1.2L246.7,222.6L246.7,222.6L246.7,222.6z M246.4,227.2l-2,1.2l-2.4-1.4l2-1.2L246.4,227.2L246.4,227.2L246.4,227.2
					z M245.4,218l-2,1.2l-2.4-1.4l2.1-1.2L245.4,218L245.4,218L245.4,218z M243.4,233l-2,1.4L239,233l2-1.2l2.4,1.4l0,0L243.4,233z
					 M243,228.8l-2,1.2l-2.4-1.2l2-1.2l2.4,1.4l0,0L243,228.8z M242.6,225l-2,1.2l-2.5-1.4l2.1-1.2L242.6,225L242.6,225L242.6,225z
					 M242.1,220l-2,1.2l-2.4-1.4l2.1-1.2L242.1,220L242.1,220L242.1,220z M240.1,235.2l-2,1.2l-6.2-3.6l2-1.2L240.1,235.2
					L240.1,235.2L240.1,235.2z M239.7,231l-2,1.2l-2.4-1.4l2-1.2L239.7,231L239.7,231L239.7,231z M239.2,226.6l-2,1.2l-2.5-1.2
					l2.1-1.2l2.4,1.4l0,0L239.2,226.6z M237,221.7l-2,1.2l-1.1-0.6l2.1-1.2L237,221.7L237,221.7L237,221.7z M235.8,228.9l-2,1.2
					l-2.5-1.4l2.1-1.2L235.8,228.9L235.8,228.9L235.8,228.9z M233.6,223.7l-2,1.2l-1.1-0.6l2.1-1.2L233.6,223.7L233.6,223.7
					L233.6,223.7z M232.5,230.8l-2,1.2l-2.5-1.4l2.1-1.2L232.5,230.8L232.5,230.8L232.5,230.8z M230.3,225.6l-2,1.2l-1.1-0.6
					l2.1-1.2L230.3,225.6L230.3,225.6L230.3,225.6z M226.9,227.6l-2,1.2l-1.1-0.6l2.1-1.2L226.9,227.6L226.9,227.6L226.9,227.6z"/>
			</g>
		</g>
		<g id="freepik--Device--inject-11">
			<polygon class="st7" points="272.4,168.9 249.4,155.7 134.7,221.9 157.6,235.2 			"/>
			<g id="freepik--Monitor--inject-11">
				<path class="st0" d="M210.4,213.6l-12.9-7.5c-1-0.6-1.6-1.7-1.6-2.8v-20.2l28.6-16.5v20.2c0.1,1.1,0.7,2.2,1.6,2.8l15.4,8.8v2.3
					c0,1.3-0.9,2.5-2.5,3.5l-16.4,9.5C218.8,215.5,214.2,215.5,210.4,213.6z"/>
				<path class="st9" d="M199.5,205c-1-0.6-1.6-1.7-1.6-2.8v-15.8l3.8-2.2c-0.1-1.4-0.2-2.8-0.4-4.2l-5.5,3.1v20.2
					c0.1,1.1,0.7,2.2,1.6,2.8l5.2,3v-2.3L199.5,205z"/>
				<path class="st10" d="M197.8,186.3l28.6-16.5v15.8c0.1,1.1,0.7,2.2,1.6,2.8l10.9,6.4c3.4,1.9,3.4,5.1,0,7.1l-16.4,9.5
					c-3.8,1.9-8.4,1.9-12.2,0l-10.9-6.4c-1-0.6-1.6-1.7-1.6-2.8L197.8,186.3z"/>
				<path class="st11" d="M202.7,206.8l-3.3-1.9c-1-0.6-1.6-1.7-1.6-2.8v-15.8l28.6-16.5v15.8c0.1,1.1,0.7,2.2,1.6,2.8l3.3,1.9l0,0
					L202.7,206.8z"/>
				<path class="st11" d="M239,201.8l-16.4,9.5c-1.8,1-3.8,1.5-5.8,1.4v2.3c2,0,4-0.5,5.8-1.4l16.4-9.5c1.7-1,2.5-2.3,2.5-3.5v-2.3
					C241.5,199.6,240.7,200.9,239,201.8z"/>
				<path class="st2" d="M150,220.5v-96.9c0.1-1.4,0.8-2.7,2-3.5l110.7-63.9c0.7-0.4,1.4-0.6,2.2-0.6c2.1,0.1,3.8,1.9,3.7,4v96.9
					c-0.1,1.4-0.8,2.7-2,3.5l-110.7,63.9c-1.2,0.7-2.7,0.7-4,0.1C150.7,223.1,150,221.9,150,220.5z"/>
				<path class="st1" d="M153.8,222.7v-96.9c0.1-1.4,0.8-2.7,2-3.5l110.7-63.9c1.1-0.7,2-0.1,2,1.2v96.9c-0.1,1.4-0.8,2.7-2,3.5
					l-110.7,63.9C154.7,224.5,153.8,224,153.8,222.7z"/>
				<path class="st9" d="M153.8,222.9V212l-3.8-2.2v10.9c0,0.7,0.1,1.3,0.4,1.9c1,1.9,3.3,2.6,5.1,1.6
					C154.5,224.6,153.8,224.1,153.8,222.9z"/>
				<path class="st12" d="M268.5,145.8v10.9c-0.1,1.4-0.8,2.7-2,3.5l-110.7,63.9c-1.1,0.7-2,0.1-2-1.2V212L268.5,145.8z"/>
				<path class="st3" d="M158.8,204.4L263.5,144c0.7-0.5,1.2-1.3,1.2-2.1V65.2c0-0.8-0.5-1.1-1.2-0.7l-104.7,60.4
					c-0.7,0.5-1.2,1.3-1.2,2.1v76.7C157.6,204.5,158.2,204.8,158.8,204.4z"/>
				<path class="st13" d="M158.8,204.4L263.5,144c0.7-0.5,1.2-1.3,1.2-2.1V65.2c0-0.8-0.5-1.1-1.2-0.7l-104.7,60.4
					c-0.7,0.5-1.2,1.3-1.2,2.1v76.7C157.6,204.5,158.2,204.8,158.8,204.4z"/>
				<path class="st2" d="M213.1,184.2c-0.1,1.3-0.8,2.6-1.9,3.3c-1.1,0.6-1.9,0.1-1.9-1.1c0.1-1.3,0.8-2.6,1.9-3.3
					C212.2,182.5,213.1,183,213.1,184.2z"/>
				<path class="st8" d="M150.6,121.6c-0.4,0.6-0.6,1.3-0.6,2v86.2l3.8,2.2v-86.2c0-0.7,0.2-1.4,0.6-2L150.6,121.6z"/>
			</g>
		</g>
		<g id="freepik--Window--inject-11">
			<g id="freepik--window--inject-11">
				<path class="st2" d="M250.5,39.7v94c-0.1,1.4-0.8,2.6-2,3.4l-127.3,73.5l-1.7,1l0,0h0c-0.2,0.1-0.4,0.2-0.6,0.2
					c-0.1,0-0.2,0-0.3,0h-0.2l-0.1-0.1l-0.1-0.1c-0.4-0.2-0.7-0.7-0.7-1.2v-0.4l0,0v-93.5c0.1-1.4,0.8-2.6,2-3.4l129.2-74.5
					c0.4-0.3,0.9-0.3,1.3-0.2c0.1,0,0.1,0.1,0.2,0.1l0,0c0,0,0.1,0.1,0.1,0.1l0.1,0.1c0,0,0,0.1,0.1,0.1c0.1,0.1,0.1,0.2,0.1,0.3
					c0,0.1,0,0.1,0,0.2l0,0c0,0.1,0,0.1,0,0.2C250.5,39.6,250.5,39.7,250.5,39.7z"/>
				<path class="st3" d="M247.4,37.1c-0.5-0.2-1-0.2-1.4,0.1l-129.2,74.6c-1.2,0.8-1.9,2-2,3.4v6.3l2.5,1.5v-6.4
					c0.1-1.4,0.8-2.6,2-3.4l129.2-74.5c0.4-0.3,0.9-0.3,1.3-0.2C249.4,38.3,247.8,37.3,247.4,37.1z"/>
				<path class="st3" d="M250.5,46.2L117.4,123v-6.4c0.1-1.4,0.8-2.6,2-3.4l129.2-74.6c1.1-0.6,2-0.1,2,1.1V46.2z"/>
				<g class="st14">
					<path class="st12" d="M249.8,38.5c-0.4-0.2-2-1.1-2.4-1.4c-0.5-0.2-1-0.2-1.4,0.1l-129.2,74.5c-0.6,0.4-1,0.8-1.4,1.4l2.5,1.4
						c0.3-0.6,0.8-1.1,1.4-1.4l129.2-74.5C248.9,38.4,249.4,38.3,249.8,38.5z"/>
				</g>
				<path class="st7" d="M117.4,123v-6.5c0-0.7,0.2-1.4,0.6-1.9l-2.5-1.4c-0.4,0.6-0.6,1.3-0.6,2v6.3L117.4,123z"/>
				<path class="st2" d="M122.9,115.6c0,0.9-0.4,1.8-1.1,2.3c-0.6,0.4-1.1-0.1-1.1-1.1c0-0.9,0.4-1.8,1.1-2.3
					C122.4,114.2,122.9,114.7,122.9,115.6z"/>
				<path class="st2" d="M126.9,113.3c0,0.9-0.4,1.8-1.1,2.3c-0.6,0.4-1.1-0.1-1.1-1.1c0-0.9,0.4-1.8,1.1-2.3
					C126.4,111.9,126.9,112.4,126.9,113.3z"/>
				<path class="st2" d="M130.8,111.1c0,0.9-0.4,1.8-1.1,2.3c-0.6,0.4-1.1-0.1-1.1-1.1c0-0.9,0.4-1.8,1.1-2.3
					C130.3,109.6,130.8,110.1,130.8,111.1z"/>
				<path class="st15" d="M118.1,211.6L118.1,211.6L118.1,211.6c-0.4-0.2-0.7-0.7-0.7-1.1V123l-2.5-1.5v87.2c0,0.1,0,0.2,0,0.3
					c0.1,0.6,0.5,1.2,1,1.5l2.1,1.2L118.1,211.6L118.1,211.6z"/>
			</g>
			<g id="freepik--Code--inject-11">
				<path class="st3" d="M211.6,79.8c0,0.5-0.3,0.9-0.7,1.2l-27.2,15.7c-0.4,0.2-0.7,0.1-0.7-0.3c0-0.5,0.3-0.9,0.7-1.2l27.2-15.7
					C211.3,79.2,211.6,79.4,211.6,79.8z"/>
				<path class="st0" d="M201.2,109.8c0,0.5-0.3,0.9-0.7,1.2l-10.3,5.9c-0.4,0.2-0.7,0.1-0.7-0.3c0-0.5,0.3-0.9,0.7-1.2l10.3-5.9
					C200.9,109.3,201.2,109.4,201.2,109.8z"/>
				<path class="st0" d="M201.2,115.8c0,0.5-0.3,0.9-0.7,1.2l-10.3,5.9c-0.4,0.2-0.7,0.1-0.7-0.3c0-0.5,0.3-0.9,0.7-1.2l10.3-5.9
					C200.9,115.3,201.2,115.4,201.2,115.8z"/>
				<path class="st3" d="M181.7,97c0,0.5-0.3,0.9-0.7,1.2l-54.5,31.4c-0.4,0.2-0.7,0.1-0.7-0.4c0-0.5,0.3-0.9,0.7-1.2L181,96.7
					C181.4,96.5,181.7,96.6,181.7,97z"/>
				<path class="st3" d="M201,152c0,0.5-0.3,0.9-0.7,1.1l-16.6,9.6c-0.4,0.2-0.7,0.1-0.7-0.4c0-0.5,0.3-0.9,0.7-1.1l16.6-9.6
					C200.6,151.4,201,151.5,201,152z"/>
				<path class="st3" d="M181.7,163.1c0,0.5-0.3,0.9-0.7,1.1l-54.5,31.4c-0.4,0.2-0.7,0.1-0.7-0.4c0-0.5,0.3-0.9,0.7-1.1l54.5-31.4
					C181.4,162.5,181.7,162.7,181.7,163.1z"/>
				<path class="st3" d="M211.6,85.8c0,0.5-0.3,0.9-0.7,1.2l-13.7,7.8c-0.4,0.2-0.7,0.1-0.7-0.3c0-0.5,0.3-0.9,0.7-1.2l13.7-7.9
					C211.3,85.2,211.6,85.4,211.6,85.8z"/>
				<path class="st16" d="M211.6,85.8c0,0.5-0.3,0.9-0.7,1.2l-13.7,7.8c-0.4,0.2-0.7,0.1-0.7-0.3c0-0.5,0.3-0.9,0.7-1.2l13.7-7.9
					C211.3,85.2,211.6,85.4,211.6,85.8z"/>
				<path class="st3" d="M211.6,91.8c0,0.5-0.3,0.9-0.7,1.2l-6.4,3.7c-0.4,0.2-0.7,0.1-0.7-0.3c0-0.5,0.3-0.9,0.7-1.2l6.4-3.7
					C211.3,91.2,211.6,91.4,211.6,91.8z"/>
				<path class="st16" d="M211.6,91.8c0,0.5-0.3,0.9-0.7,1.2l-6.4,3.7c-0.4,0.2-0.7,0.1-0.7-0.3c0-0.5,0.3-0.9,0.7-1.2l6.4-3.7
					C211.3,91.2,211.6,91.4,211.6,91.8z"/>
				<path class="st3" d="M211.6,103.8c0,0.5-0.3,0.9-0.7,1.2l-6.4,3.7c-0.4,0.2-0.7,0.1-0.7-0.3c0-0.5,0.3-0.9,0.7-1.2l6.4-3.7
					C211.3,103.2,211.6,103.4,211.6,103.8z"/>
				<path class="st16" d="M211.6,103.8c0,0.5-0.3,0.9-0.7,1.2l-6.4,3.7c-0.4,0.2-0.7,0.1-0.7-0.3c0-0.5,0.3-0.9,0.7-1.2l6.4-3.7
					C211.3,103.2,211.6,103.4,211.6,103.8z"/>
				<path class="st3" d="M211.6,109.8c0,0.5-0.3,0.9-0.7,1.2l-6.4,3.7c-0.4,0.2-0.7,0.1-0.7-0.3c0-0.5,0.3-0.9,0.7-1.2l6.4-3.7
					C211.3,109.3,211.6,109.4,211.6,109.8z"/>
				<path class="st16" d="M211.6,109.8c0,0.5-0.3,0.9-0.7,1.2l-6.4,3.7c-0.4,0.2-0.7,0.1-0.7-0.3c0-0.5,0.3-0.9,0.7-1.2l6.4-3.7
					C211.3,109.3,211.6,109.4,211.6,109.8z"/>
				<path class="st3" d="M195.2,95.2c0,0.5-0.3,0.9-0.7,1.2l-8.2,4.8c-0.4,0.2-0.7,0.1-0.7-0.3c0-0.5,0.3-0.9,0.7-1.2l8.2-4.8
					C194.9,94.7,195.2,94.8,195.2,95.2z"/>
				<path class="st16" d="M195.2,95.2c0,0.5-0.3,0.9-0.7,1.2l-8.2,4.8c-0.4,0.2-0.7,0.1-0.7-0.3c0-0.5,0.3-0.9,0.7-1.2l8.2-4.8
					C194.9,94.7,195.2,94.8,195.2,95.2z"/>
				<path class="st12" d="M182.5,138.7c0,0.5-0.3,0.9-0.7,1.1l-55.3,31.9c-0.4,0.2-0.7,0.1-0.7-0.4c0-0.5,0.3-0.9,0.7-1.1l55.3-31.9
					C182.2,138.1,182.5,138.3,182.5,138.7z"/>
				<path class="st12" d="M135.4,159.7c0,0.5-0.3,0.9-0.7,1.1l-8.2,4.8c-0.4,0.2-0.7,0.1-0.7-0.4c0-0.5,0.3-0.9,0.7-1.1l8.2-4.8
					C135.1,159.2,135.4,159.3,135.4,159.7z"/>
				<path class="st12" d="M193.4,126.3c0,0.5-0.3,0.9-0.7,1.2l-55.3,31.9c-0.4,0.2-0.7,0.1-0.7-0.4c0-0.5,0.3-0.9,0.7-1.2l55.3-31.9
					C193.1,125.8,193.4,125.9,193.4,126.3z"/>
				<path class="st3" d="M201.2,97.8c0,0.5-0.3,0.9-0.7,1.2l-13.7,7.8c-0.4,0.2-0.7,0.1-0.7-0.3c0-0.5,0.3-0.9,0.7-1.2l13.7-7.9
					C200.9,97.2,201.2,97.4,201.2,97.8z"/>
				<path class="st16" d="M201.2,97.8c0,0.5-0.3,0.9-0.7,1.2l-13.7,7.8c-0.4,0.2-0.7,0.1-0.7-0.3c0-0.5,0.3-0.9,0.7-1.2l13.7-7.9
					C200.9,97.2,201.2,97.4,201.2,97.8z"/>
				<path class="st3" d="M184.8,107.2c0,0.5-0.3,0.9-0.7,1.2l-57.2,33.1c-0.4,0.2-0.7,0.1-0.7-0.4c0-0.5,0.3-0.9,0.7-1.2l57.2-33.1
					C184.5,106.7,184.8,106.8,184.8,107.2z"/>
				<path class="st16" d="M184.8,107.2c0,0.5-0.3,0.9-0.7,1.2l-57.2,33.1c-0.4,0.2-0.7,0.1-0.7-0.4c0-0.5,0.3-0.9,0.7-1.2l57.2-33.1
					C184.5,106.7,184.8,106.8,184.8,107.2z"/>
				<path class="st0" d="M201.2,134c0,0.5-0.3,0.9-0.7,1.1l-74,42.7c-0.4,0.2-0.7,0.1-0.7-0.4c0-0.5,0.3-0.9,0.7-1.1l74-42.7
					C200.9,133.4,201.2,133.6,201.2,134z"/>
				<path class="st3" d="M211.6,128c0,0.5-0.3,0.9-0.7,1.2l-6.4,3.7c-0.4,0.2-0.7,0.1-0.7-0.4c0-0.5,0.3-0.9,0.7-1.1l6.4-3.7
					C211.3,127.4,211.6,127.6,211.6,128z"/>
				<path class="st16" d="M211.6,128c0,0.5-0.3,0.9-0.7,1.2l-6.4,3.7c-0.4,0.2-0.7,0.1-0.7-0.4c0-0.5,0.3-0.9,0.7-1.1l6.4-3.7
					C211.3,127.4,211.6,127.6,211.6,128z"/>
				<path class="st0" d="M201.2,140c0,0.5-0.3,0.9-0.7,1.1l-74,42.7c-0.4,0.2-0.7,0.1-0.7-0.4c0-0.5,0.3-0.9,0.7-1.1l74-42.7
					C200.9,139.4,201.2,139.6,201.2,140z"/>
				<path class="st3" d="M211.6,134c0,0.5-0.3,0.9-0.7,1.1l-6.4,3.7c-0.4,0.2-0.7,0.1-0.7-0.4c0-0.5,0.3-0.9,0.7-1.1l6.4-3.7
					C211.3,133.4,211.6,133.6,211.6,134z"/>
				<path class="st16" d="M211.6,134c0,0.5-0.3,0.9-0.7,1.1l-6.4,3.7c-0.4,0.2-0.7,0.1-0.7-0.4c0-0.5,0.3-0.9,0.7-1.1l6.4-3.7
					C211.3,133.4,211.6,133.6,211.6,134z"/>
				<path class="st0" d="M201.2,146c0,0.5-0.3,0.9-0.7,1.1l-74,42.7c-0.4,0.2-0.7,0.1-0.7-0.4c0-0.5,0.3-0.9,0.7-1.1l74-42.7
					C200.9,145.4,201.2,145.6,201.2,146z"/>
				<path class="st3" d="M211.6,140c0,0.5-0.3,0.9-0.7,1.1l-6.4,3.7c-0.4,0.2-0.7,0.1-0.7-0.4c0-0.5,0.3-0.9,0.7-1.1l6.4-3.7
					C211.3,139.4,211.6,139.6,211.6,140z"/>
				<path class="st16" d="M211.6,140c0,0.5-0.3,0.9-0.7,1.1l-6.4,3.7c-0.4,0.2-0.7,0.1-0.7-0.4c0-0.5,0.3-0.9,0.7-1.1l6.4-3.7
					C211.3,139.4,211.6,139.6,211.6,140z"/>
				<g class="st17">
					<path class="st12" d="M221.6,73.8v1.4c0,0.5-0.3,0.9-0.7,1.2l-3.8,2.2c-0.4,0.2-0.7,0-0.7-0.4v-1.4c0-0.5,0.3-0.9,0.7-1.2
						l3.8-2.2C221.3,73.2,221.6,73.4,221.6,73.8z"/>
					<path class="st12" d="M221.6,79.9v1.4c0,0.5-0.3,0.9-0.7,1.2l-3.8,2.2c-0.4,0.2-0.7,0-0.7-0.4v-1.4c0-0.5,0.3-0.9,0.7-1.2
						l3.8-2.2C221.3,79.3,221.6,79.4,221.6,79.9z"/>
					<path class="st12" d="M221.6,85.9v1.4c0,0.5-0.3,0.9-0.7,1.2l-3.8,2.2c-0.4,0.2-0.7,0-0.7-0.4v-1.4c0-0.5,0.3-0.9,0.7-1.2
						l3.8-2.2C221.3,85.3,221.6,85.5,221.6,85.9z"/>
					<path class="st12" d="M221.6,92v1.4c0,0.5-0.3,0.9-0.7,1.2l-3.8,2.2c-0.4,0.2-0.7,0-0.7-0.4V95c0-0.5,0.3-0.9,0.7-1.2l3.8-2.2
						C221.3,91.4,221.6,91.6,221.6,92z"/>
					<path class="st12" d="M221.6,98.1v1.4c0,0.5-0.3,0.9-0.7,1.2l-3.8,2.2c-0.4,0.2-0.7,0-0.7-0.4V101c0-0.5,0.3-0.9,0.7-1.2
						l3.8-2.2C221.3,97.4,221.6,97.6,221.6,98.1z"/>
					<path class="st12" d="M221.6,104.1v1.4c0,0.5-0.3,0.9-0.7,1.2l-3.8,2.2c-0.4,0.2-0.7,0-0.7-0.4v-1.4c0-0.5,0.3-0.9,0.7-1.2
						l3.8-2.2C221.3,103.5,221.6,103.7,221.6,104.1z"/>
					<path class="st12" d="M221.6,110.2v1.4c0,0.5-0.3,0.9-0.7,1.2l-3.8,2.2c-0.4,0.2-0.7,0-0.7-0.4v-1.4c0-0.5,0.3-0.9,0.7-1.2
						l3.8-2.2C221.3,109.6,221.6,109.8,221.6,110.2z"/>
					<path class="st12" d="M221.6,116.3v1.4c0,0.5-0.3,0.9-0.7,1.2l-3.8,2.2c-0.4,0.2-0.7,0.1-0.7-0.4v-1.4c0-0.5,0.3-0.9,0.7-1.2
						l3.8-2.2C221.3,115.6,221.6,115.8,221.6,116.3z"/>
					<path class="st12" d="M221.6,122.3v1.4c0,0.5-0.3,0.9-0.7,1.2l-3.8,2.2c-0.4,0.2-0.7,0-0.7-0.4v-1.4c0-0.5,0.3-0.9,0.7-1.2
						l3.8-2.2C221.3,121.7,221.6,121.9,221.6,122.3z"/>
					<path class="st12" d="M221.6,128.4v1.4c0,0.5-0.3,0.9-0.7,1.2l-3.8,2.1c-0.4,0.2-0.7,0.1-0.7-0.4v-1.4c0-0.5,0.3-0.9,0.7-1.2
						l3.8-2.2C221.3,127.8,221.6,128,221.6,128.4z"/>
					<path class="st12" d="M221.6,134.4v1.4c0,0.5-0.3,0.9-0.7,1.2l-3.8,2.2c-0.4,0.2-0.7,0-0.7-0.4v-1.4c0-0.5,0.3-0.9,0.7-1.2
						l3.8-2.2C221.3,133.8,221.6,134,221.6,134.4z"/>
					<path class="st12" d="M221.6,140.5v1.4c0,0.5-0.3,0.9-0.7,1.2l-3.8,2.2c-0.4,0.2-0.7,0.1-0.7-0.4v-1.4c0-0.5,0.3-0.9,0.7-1.2
						l3.8-2.2C221.3,139.9,221.6,140.1,221.6,140.5z"/>
				</g>
				<path class="st1" d="M247.3,54.5v23.5c0,1-0.6,1.8-1.4,2.4l-20.4,11.8c-0.8,0.4-1.4,0.1-1.4-0.8V67.9c0-1,0.6-1.8,1.4-2.4
					l20.4-11.8C246.7,53.3,247.3,53.6,247.3,54.5z"/>
				<path class="st3" d="M244.7,77.4c0,0.5-0.3,0.9-0.7,1.2l-1.9,1.1c-0.4,0.2-0.7,0.1-0.7-0.3c0-0.5,0.3-0.9,0.7-1.2l1.9-1.1
					C244.4,76.8,244.7,77,244.7,77.4z"/>
				<path class="st16" d="M244.7,77.4c0,0.5-0.3,0.9-0.7,1.2l-1.9,1.1c-0.4,0.2-0.7,0.1-0.7-0.3c0-0.5,0.3-0.9,0.7-1.2l1.9-1.1
					C244.4,76.8,244.7,77,244.7,77.4z"/>
				<path class="st3" d="M244.7,58.1c0,0.5-0.3,0.9-0.7,1.2l-1.9,1.1c-0.4,0.2-0.7,0.1-0.7-0.3c0-0.5,0.3-0.9,0.7-1.2l1.9-1.1
					C244.4,57.5,244.7,57.7,244.7,58.1z"/>
				<path class="st16" d="M244.7,58.1c0,0.5-0.3,0.9-0.7,1.2l-1.9,1.1c-0.4,0.2-0.7,0.1-0.7-0.3c0-0.5,0.3-0.9,0.7-1.2l1.9-1.1
					C244.4,57.5,244.7,57.7,244.7,58.1z"/>
				<path class="st3" d="M242.1,63.5c0,0.5-0.3,0.9-0.7,1.2l-1.9,1.1c-0.4,0.2-0.7,0.1-0.7-0.3c0-0.5,0.3-0.9,0.7-1.2l1.9-1.1
					C241.8,62.9,242.1,63.1,242.1,63.5z"/>
				<path class="st16" d="M242.1,63.5c0,0.5-0.3,0.9-0.7,1.2l-1.9,1.1c-0.4,0.2-0.7,0.1-0.7-0.3c0-0.5,0.3-0.9,0.7-1.2l1.9-1.1
					C241.8,62.9,242.1,63.1,242.1,63.5z"/>
				<path class="st3" d="M242.1,67.4c0,0.5-0.3,0.9-0.7,1.2l-1.9,1.1c-0.4,0.2-0.7,0.1-0.7-0.3c0-0.5,0.3-0.9,0.7-1.2l1.9-1.1
					C241.8,66.8,242.1,66.9,242.1,67.4z"/>
				<path class="st16" d="M242.1,67.4c0,0.5-0.3,0.9-0.7,1.2l-1.9,1.1c-0.4,0.2-0.7,0.1-0.7-0.3c0-0.5,0.3-0.9,0.7-1.2l1.9-1.1
					C241.8,66.8,242.1,66.9,242.1,67.4z"/>
				<path class="st3" d="M244.7,69.7c0,0.5-0.3,0.9-0.7,1.2l-1.9,1.1c-0.4,0.2-0.7,0.1-0.7-0.3c0-0.5,0.3-0.9,0.7-1.2l1.9-1.1
					C244.4,69.1,244.7,69.3,244.7,69.7z"/>
				<path class="st16" d="M244.7,69.7c0,0.5-0.3,0.9-0.7,1.2l-1.9,1.1c-0.4,0.2-0.7,0.1-0.7-0.3c0-0.5,0.3-0.9,0.7-1.2l1.9-1.1
					C244.4,69.1,244.7,69.3,244.7,69.7z"/>
				<path class="st3" d="M242.1,75.1c0,0.5-0.3,0.9-0.7,1.2l-1.9,1.1c-0.4,0.2-0.7,0.1-0.7-0.3c0-0.5,0.3-0.9,0.7-1.2l1.9-1.1
					C241.8,74.5,242.1,74.7,242.1,75.1z"/>
				<path class="st16" d="M242.1,75.1c0,0.5-0.3,0.9-0.7,1.2l-1.9,1.1c-0.4,0.2-0.7,0.1-0.7-0.3c0-0.5,0.3-0.9,0.7-1.2l1.9-1.1
					C241.8,74.5,242.1,74.7,242.1,75.1z"/>
				<path class="st3" d="M239.6,61.1c0,0.5-0.3,0.9-0.7,1.2l-11.5,6.6c-0.4,0.2-0.7,0.1-0.7-0.3c0-0.5,0.3-0.9,0.7-1.2l11.5-6.6
					C239.3,60.5,239.6,60.7,239.6,61.1z"/>
				<path class="st18" d="M239.6,61.1c0,0.5-0.3,0.9-0.7,1.2l-11.5,6.6c-0.4,0.2-0.7,0.1-0.7-0.3c0-0.5,0.3-0.9,0.7-1.2l11.5-6.6
					C239.3,60.5,239.6,60.7,239.6,61.1z"/>
				<path class="st3" d="M239.6,80.3c0,0.5-0.3,0.9-0.7,1.2l-11.5,6.6c-0.4,0.2-0.7,0.1-0.7-0.3c0-0.5,0.3-0.9,0.7-1.2l11.5-6.6
					C239.3,79.8,239.6,80,239.6,80.3z"/>
				<path class="st18" d="M239.6,80.3c0,0.5-0.3,0.9-0.7,1.2l-11.5,6.6c-0.4,0.2-0.7,0.1-0.7-0.3c0-0.5,0.3-0.9,0.7-1.2l11.5-6.6
					C239.3,79.8,239.6,80,239.6,80.3z"/>
				<path class="st3" d="M236.9,66.5c0,0.5-0.3,0.9-0.7,1.2l-8.8,5.1c-0.4,0.2-0.7,0.1-0.7-0.3c0-0.5,0.3-0.9,0.7-1.2l8.8-5.1
					C236.6,65.9,236.9,66,236.9,66.5z"/>
				<path class="st18" d="M236.9,66.5c0,0.5-0.3,0.9-0.7,1.2l-8.8,5.1c-0.4,0.2-0.7,0.1-0.7-0.3c0-0.5,0.3-0.9,0.7-1.2l8.8-5.1
					C236.6,65.9,236.9,66,236.9,66.5z"/>
				<path class="st3" d="M236.9,70.3c0,0.5-0.3,0.9-0.7,1.2l-8.8,5.1c-0.4,0.2-0.7,0.1-0.7-0.3c0-0.5,0.3-0.9,0.7-1.2l8.8-5.1
					C236.6,69.7,236.9,69.9,236.9,70.3z"/>
				<path class="st18" d="M236.9,70.3c0,0.5-0.3,0.9-0.7,1.2l-8.8,5.1c-0.4,0.2-0.7,0.1-0.7-0.3c0-0.5,0.3-0.9,0.7-1.2l8.8-5.1
					C236.6,69.7,236.9,69.9,236.9,70.3z"/>
				<path class="st3" d="M239.6,72.7c0,0.5-0.3,0.9-0.7,1.2l-11.5,6.6c-0.4,0.2-0.7,0.1-0.7-0.3c0-0.5,0.3-0.9,0.7-1.2l11.5-6.6
					C239.3,72.1,239.6,72.2,239.6,72.7z"/>
				<path class="st18" d="M239.6,72.7c0,0.5-0.3,0.9-0.7,1.2l-11.5,6.6c-0.4,0.2-0.7,0.1-0.7-0.3c0-0.5,0.3-0.9,0.7-1.2l11.5-6.6
					C239.3,72.1,239.6,72.2,239.6,72.7z"/>
				<path class="st3" d="M236.9,78c0,0.5-0.3,0.9-0.7,1.2l-8.8,5.1c-0.4,0.2-0.7,0.1-0.7-0.3c0-0.5,0.3-0.9,0.7-1.2l8.8-5.1
					C236.6,77.5,236.9,77.6,236.9,78z"/>
				<path class="st18" d="M236.9,78c0,0.5-0.3,0.9-0.7,1.2l-8.8,5.1c-0.4,0.2-0.7,0.1-0.7-0.3c0-0.5,0.3-0.9,0.7-1.2l8.8-5.1
					C236.6,77.5,236.9,77.6,236.9,78z"/>
				<path class="st1" d="M247.3,85.7v46.5c0,1-0.6,1.8-1.4,2.4l-20.4,11.8c-0.8,0.4-1.4,0.1-1.4-0.8V99c0.1-1,0.6-1.8,1.4-2.4
					l20.4-11.8C246.7,84.4,247.3,84.8,247.3,85.7z"/>
				<path class="st3" d="M244.7,89.3c0,0.5-0.3,0.9-0.7,1.2l-1.9,1.1c-0.4,0.2-0.7,0.1-0.7-0.3c0-0.5,0.3-0.9,0.7-1.2l1.9-1.1
					C244.4,88.7,244.7,88.9,244.7,89.3z"/>
				<path class="st16" d="M244.7,89.3c0,0.5-0.3,0.9-0.7,1.2l-1.9,1.1c-0.4,0.2-0.7,0.1-0.7-0.3c0-0.5,0.3-0.9,0.7-1.2l1.9-1.1
					C244.4,88.7,244.7,88.9,244.7,89.3z"/>
				<path class="st3" d="M242.1,94.6c0,0.5-0.3,0.9-0.7,1.2l-1.9,1.1c-0.4,0.2-0.7,0.1-0.7-0.3c0-0.5,0.3-0.9,0.7-1.2l1.9-1.1
					C241.8,94.1,242.1,94.2,242.1,94.6z"/>
				<path class="st16" d="M242.1,94.6c0,0.5-0.3,0.9-0.7,1.2l-1.9,1.1c-0.4,0.2-0.7,0.1-0.7-0.3c0-0.5,0.3-0.9,0.7-1.2l1.9-1.1
					C241.8,94.1,242.1,94.2,242.1,94.6z"/>
				<path class="st3" d="M242.1,98.5c0,0.5-0.3,0.9-0.7,1.2l-1.9,1.1c-0.4,0.2-0.7,0.1-0.7-0.3c0-0.5,0.3-0.9,0.7-1.2l1.9-1.1
					C241.8,97.9,242.1,98.1,242.1,98.5z"/>
				<path class="st16" d="M242.1,98.5c0,0.5-0.3,0.9-0.7,1.2l-1.9,1.1c-0.4,0.2-0.7,0.1-0.7-0.3c0-0.5,0.3-0.9,0.7-1.2l1.9-1.1
					C241.8,97.9,242.1,98.1,242.1,98.5z"/>
				<path class="st3" d="M244.7,100.8c0,0.5-0.3,0.9-0.7,1.2l-1.9,1.1c-0.4,0.2-0.7,0.1-0.7-0.3c0-0.5,0.3-0.9,0.7-1.2l1.9-1.1
					C244.4,100.3,244.7,100.4,244.7,100.8z"/>
				<path class="st16" d="M244.7,100.8c0,0.5-0.3,0.9-0.7,1.2l-1.9,1.1c-0.4,0.2-0.7,0.1-0.7-0.3c0-0.5,0.3-0.9,0.7-1.2l1.9-1.1
					C244.4,100.3,244.7,100.4,244.7,100.8z"/>
				<path class="st3" d="M239.6,92.2c0,0.5-0.3,0.9-0.7,1.2l-11.5,6.6c-0.4,0.2-0.7,0.1-0.7-0.3c0-0.5,0.3-0.9,0.7-1.2l11.5-6.6
					C239.3,91.7,239.6,91.8,239.6,92.2z"/>
				<path class="st18" d="M239.6,92.2c0,0.5-0.3,0.9-0.7,1.2l-11.5,6.6c-0.4,0.2-0.7,0.1-0.7-0.3c0-0.5,0.3-0.9,0.7-1.2l11.5-6.6
					C239.3,91.7,239.6,91.8,239.6,92.2z"/>
				<path class="st3" d="M236.9,97.6c0,0.5-0.3,0.9-0.7,1.2l-8.8,5.1c-0.4,0.2-0.7,0.1-0.7-0.3c0-0.5,0.3-0.9,0.7-1.2l8.8-5.1
					C236.6,97,236.9,97.2,236.9,97.6z"/>
				<path class="st18" d="M236.9,97.6c0,0.5-0.3,0.9-0.7,1.2l-8.8,5.1c-0.4,0.2-0.7,0.1-0.7-0.3c0-0.5,0.3-0.9,0.7-1.2l8.8-5.1
					C236.6,97,236.9,97.2,236.9,97.6z"/>
				<path class="st3" d="M236.9,101.5c0,0.5-0.3,0.9-0.7,1.2l-8.8,5.1c-0.4,0.2-0.7,0.1-0.7-0.4c0-0.5,0.3-0.9,0.7-1.2l8.8-5.1
					C236.6,100.9,236.9,101.1,236.9,101.5z"/>
				<path class="st18" d="M236.9,101.5c0,0.5-0.3,0.9-0.7,1.2l-8.8,5.1c-0.4,0.2-0.7,0.1-0.7-0.4c0-0.5,0.3-0.9,0.7-1.2l8.8-5.1
					C236.6,100.9,236.9,101.1,236.9,101.5z"/>
				<path class="st3" d="M239.6,103.8c0,0.5-0.3,0.9-0.7,1.2l-11.5,6.6c-0.4,0.2-0.7,0.1-0.7-0.3c0-0.5,0.3-0.9,0.7-1.2l11.5-6.6
					C239.3,103.2,239.6,103.4,239.6,103.8z"/>
				<path class="st18" d="M239.6,103.8c0,0.5-0.3,0.9-0.7,1.2l-11.5,6.6c-0.4,0.2-0.7,0.1-0.7-0.3c0-0.5,0.3-0.9,0.7-1.2l11.5-6.6
					C239.3,103.2,239.6,103.4,239.6,103.8z"/>
				<path class="st3" d="M242.1,106.2c0,0.5-0.3,0.9-0.7,1.2l-1.9,1.1c-0.4,0.2-0.7,0.1-0.7-0.3c0-0.5,0.3-0.9,0.7-1.2l1.9-1.1
					C241.8,105.7,242.1,105.8,242.1,106.2z"/>
				<path class="st16" d="M242.1,106.2c0,0.5-0.3,0.9-0.7,1.2l-1.9,1.1c-0.4,0.2-0.7,0.1-0.7-0.3c0-0.5,0.3-0.9,0.7-1.2l1.9-1.1
					C241.8,105.7,242.1,105.8,242.1,106.2z"/>
				<path class="st3" d="M242.1,110.1c0,0.5-0.3,0.9-0.7,1.2l-1.9,1.1c-0.4,0.2-0.7,0.1-0.7-0.3c0-0.5,0.3-0.9,0.7-1.2l1.9-1.1
					C241.8,109.5,242.1,109.7,242.1,110.1z"/>
				<path class="st16" d="M242.1,110.1c0,0.5-0.3,0.9-0.7,1.2l-1.9,1.1c-0.4,0.2-0.7,0.1-0.7-0.3c0-0.5,0.3-0.9,0.7-1.2l1.9-1.1
					C241.8,109.5,242.1,109.7,242.1,110.1z"/>
				<path class="st3" d="M236.9,109.2c0,0.5-0.3,0.9-0.7,1.2l-8.8,5.1c-0.4,0.2-0.7,0.1-0.7-0.3c0-0.5,0.3-0.9,0.7-1.2l8.8-5.1
					C236.6,108.6,236.9,108.8,236.9,109.2z"/>
				<path class="st18" d="M236.9,109.2c0,0.5-0.3,0.9-0.7,1.2l-8.8,5.1c-0.4,0.2-0.7,0.1-0.7-0.3c0-0.5,0.3-0.9,0.7-1.2l8.8-5.1
					C236.6,108.6,236.9,108.8,236.9,109.2z"/>
				<path class="st3" d="M236.9,113.1c0,0.5-0.3,0.9-0.7,1.2l-8.8,5.1c-0.4,0.2-0.7,0.1-0.7-0.3c0-0.5,0.3-0.9,0.7-1.2l8.8-5.1
					C236.6,112.5,236.9,112.7,236.9,113.1z"/>
				<path class="st18" d="M236.9,113.1c0,0.5-0.3,0.9-0.7,1.2l-8.8,5.1c-0.4,0.2-0.7,0.1-0.7-0.3c0-0.5,0.3-0.9,0.7-1.2l8.8-5.1
					C236.6,112.5,236.9,112.7,236.9,113.1z"/>
				<path class="st3" d="M244.7,120.2c0,0.5-0.3,0.9-0.7,1.2l-1.9,1.1c-0.4,0.2-0.7,0.1-0.7-0.3c0-0.5,0.3-0.9,0.7-1.2l1.9-1.1
					C244.4,119.6,244.7,119.8,244.7,120.2z"/>
				<path class="st16" d="M244.7,120.2c0,0.5-0.3,0.9-0.7,1.2l-1.9,1.1c-0.4,0.2-0.7,0.1-0.7-0.3c0-0.5,0.3-0.9,0.7-1.2l1.9-1.1
					C244.4,119.6,244.7,119.8,244.7,120.2z"/>
				<path class="st3" d="M239.6,123.2c0,0.5-0.3,0.9-0.7,1.2l-11.5,6.6c-0.4,0.2-0.7,0.1-0.7-0.4c0-0.5,0.3-0.9,0.7-1.1l11.5-6.6
					C239.3,122.6,239.6,122.7,239.6,123.2z"/>
				<path class="st18" d="M239.6,123.2c0,0.5-0.3,0.9-0.7,1.2l-11.5,6.6c-0.4,0.2-0.7,0.1-0.7-0.4c0-0.5,0.3-0.9,0.7-1.1l11.5-6.6
					C239.3,122.6,239.6,122.7,239.6,123.2z"/>
				<path class="st3" d="M242.1,125.6c0,0.5-0.3,0.9-0.7,1.2l-1.9,1.1c-0.4,0.2-0.7,0.1-0.7-0.3c0-0.5,0.3-0.9,0.7-1.2l1.9-1.1
					C241.8,125,242.1,125.2,242.1,125.6z"/>
				<path class="st16" d="M242.1,125.6c0,0.5-0.3,0.9-0.7,1.2l-1.9,1.1c-0.4,0.2-0.7,0.1-0.7-0.3c0-0.5,0.3-0.9,0.7-1.2l1.9-1.1
					C241.8,125,242.1,125.2,242.1,125.6z"/>
				<path class="st3" d="M242.1,129.4c0,0.5-0.3,0.9-0.7,1.1l-1.9,1.1c-0.4,0.2-0.7,0.1-0.7-0.4c0-0.5,0.3-0.9,0.7-1.2l1.9-1.1
					C241.8,128.9,242.1,129,242.1,129.4z"/>
				<path class="st16" d="M242.1,129.4c0,0.5-0.3,0.9-0.7,1.1l-1.9,1.1c-0.4,0.2-0.7,0.1-0.7-0.4c0-0.5,0.3-0.9,0.7-1.2l1.9-1.1
					C241.8,128.9,242.1,129,242.1,129.4z"/>
				<path class="st3" d="M236.9,128.5c0,0.5-0.3,0.9-0.7,1.1l-8.8,5.1c-0.4,0.2-0.7,0.1-0.7-0.4c0-0.5,0.3-0.9,0.7-1.1l8.8-5.1
					C236.6,128,236.9,128.1,236.9,128.5z"/>
				<path class="st18" d="M236.9,128.5c0,0.5-0.3,0.9-0.7,1.1l-8.8,5.1c-0.4,0.2-0.7,0.1-0.7-0.4c0-0.5,0.3-0.9,0.7-1.1l8.8-5.1
					C236.6,128,236.9,128.1,236.9,128.5z"/>
				<path class="st3" d="M236.9,132.4c0,0.5-0.3,0.9-0.7,1.1l-8.8,5.1c-0.4,0.2-0.7,0.1-0.7-0.4c0-0.5,0.3-0.9,0.7-1.1l8.8-5.1
					C236.6,131.8,236.9,132,236.9,132.4z"/>
				<path class="st18" d="M236.9,132.4c0,0.5-0.3,0.9-0.7,1.1l-8.8,5.1c-0.4,0.2-0.7,0.1-0.7-0.4c0-0.5,0.3-0.9,0.7-1.1l8.8-5.1
					C236.6,131.8,236.9,132,236.9,132.4z"/>
				<path class="st3" d="M242.1,113.9c0,0.5-0.3,0.9-0.7,1.2l-1.9,1.1c-0.4,0.2-0.7,0.1-0.7-0.3c0-0.5,0.3-0.9,0.7-1.2l1.9-1.1
					C241.8,113.3,242.1,113.5,242.1,113.9z"/>
				<path class="st16" d="M242.1,113.9c0,0.5-0.3,0.9-0.7,1.2l-1.9,1.1c-0.4,0.2-0.7,0.1-0.7-0.3c0-0.5,0.3-0.9,0.7-1.2l1.9-1.1
					C241.8,113.3,242.1,113.5,242.1,113.9z"/>
				<path class="st3" d="M244.7,116.3c0,0.5-0.3,0.9-0.7,1.2l-1.9,1.1c-0.4,0.2-0.7,0.1-0.7-0.3c0-0.5,0.3-0.9,0.7-1.2l1.9-1.1
					C244.4,115.7,244.7,115.9,244.7,116.3z"/>
				<path class="st16" d="M244.7,116.3c0,0.5-0.3,0.9-0.7,1.2l-1.9,1.1c-0.4,0.2-0.7,0.1-0.7-0.3c0-0.5,0.3-0.9,0.7-1.2l1.9-1.1
					C244.4,115.7,244.7,115.9,244.7,116.3z"/>
				<path class="st3" d="M236.9,116.9c0,0.5-0.3,0.9-0.7,1.2l-8.8,5.1c-0.4,0.2-0.7,0.1-0.7-0.3c0-0.5,0.3-0.9,0.7-1.2l8.8-5.1
					C236.6,116.3,236.9,116.5,236.9,116.9z"/>
				<path class="st18" d="M236.9,116.9c0,0.5-0.3,0.9-0.7,1.2l-8.8,5.1c-0.4,0.2-0.7,0.1-0.7-0.3c0-0.5,0.3-0.9,0.7-1.2l8.8-5.1
					C236.6,116.3,236.9,116.5,236.9,116.9z"/>
				<path class="st3" d="M239.6,119.2c0,0.5-0.3,0.9-0.7,1.2l-11.5,6.6c-0.4,0.2-0.7,0.1-0.7-0.3c0-0.5,0.3-0.9,0.7-1.2l11.5-6.6
					C239.3,118.7,239.6,118.8,239.6,119.2z"/>
				<path class="st18" d="M239.6,119.2c0,0.5-0.3,0.9-0.7,1.2l-11.5,6.6c-0.4,0.2-0.7,0.1-0.7-0.3c0-0.5,0.3-0.9,0.7-1.2l11.5-6.6
					C239.3,118.7,239.6,118.8,239.6,119.2z"/>
				<path class="st3" d="M244.7,131.8c0,0.5-0.3,0.9-0.7,1.1l-1.9,1.1c-0.4,0.2-0.7,0.1-0.7-0.4c0-0.5,0.3-0.9,0.7-1.1l1.9-1.1
					C244.4,131.3,244.7,131.4,244.7,131.8z"/>
				<path class="st16" d="M244.7,131.8c0,0.5-0.3,0.9-0.7,1.1l-1.9,1.1c-0.4,0.2-0.7,0.1-0.7-0.4c0-0.5,0.3-0.9,0.7-1.1l1.9-1.1
					C244.4,131.3,244.7,131.4,244.7,131.8z"/>
				<path class="st3" d="M239.6,134.8c0,0.5-0.3,0.9-0.7,1.1l-11.5,6.6c-0.4,0.2-0.7,0.1-0.7-0.4c0-0.5,0.3-0.9,0.7-1.1l11.5-6.6
					C239.3,134.2,239.6,134.4,239.6,134.8z"/>
				<path class="st18" d="M239.6,134.8c0,0.5-0.3,0.9-0.7,1.1l-11.5,6.6c-0.4,0.2-0.7,0.1-0.7-0.4c0-0.5,0.3-0.9,0.7-1.1l11.5-6.6
					C239.3,134.2,239.6,134.4,239.6,134.8z"/>
			</g>
		</g>
		<g>
			<g class="st19">
				<path class="st2" d="M132.3,150.2V150l0,0c0,0,0-0.1,0-0.1c0-0.1-0.1-0.1-0.1-0.2c0,0,0-0.1,0-0.1c0,0,0,0,0-0.1l-0.1-0.1l0,0
					l-0.1-0.1c-0.4-0.1-0.8-0.1-1.1,0.1L87,174.8c-0.9,0.6-1.5,1.6-1.6,2.8v76c0,0.3,0.1,0.5,0.2,0.8c0.1,0.2,0.2,0.3,0.3,0.4
					l0.1,0.1l0.1,0.1h0.1h0.1h0.2c0.2,0,0.4-0.1,0.5-0.1l43.9-25.3c0.9-0.6,1.5-1.6,1.6-2.8v-76.4
					C132.4,150.2,132.4,150.2,132.3,150.2z"/>
			</g>
			<path class="st3" d="M129.5,147.9c-0.4-0.2-0.8-0.1-1.1,0.1l-43.9,25.3c-0.9,0.6-1.5,1.6-1.6,2.7v5.1l2.5,1.5v-5.2
				c0.1-1.1,0.7-2.1,1.6-2.8l43.9-25.3c0.3-0.2,0.7-0.3,1.1-0.1C131.6,149.1,129.7,148,129.5,147.9z"/>
			<path class="st3" d="M132.4,155.5l-47,27.1v-5.2c0.1-1.1,0.7-2.1,1.6-2.8l43.9-25.3c0.9-0.5,1.6-0.1,1.6,0.9L132.4,155.5z"/>
			<g class="st14">
				<path class="st12" d="M131.9,149.3c-0.3-0.2-2.2-1.2-2.4-1.4c-0.4-0.2-0.8-0.1-1.1,0.1l-43.9,25.3c-0.5,0.3-0.8,0.7-1.1,1.1
					l2.5,1.4c0.3-0.5,0.7-0.9,1.1-1.2l43.9-25.3C131.2,149.2,131.6,149.1,131.9,149.3z"/>
			</g>
			<path class="st7" d="M85.4,182.6v-5.2c0-0.6,0.2-1.1,0.5-1.6l-2.5-1.4c-0.3,0.5-0.5,1-0.5,1.6v5.1L85.4,182.6z"/>
			<path class="st2" d="M88.6,177.7c0,0.7-0.3,1.4-0.9,1.9c-0.5,0.3-0.9-0.1-0.9-0.9c0-0.7,0.3-1.4,0.9-1.9
				C88.2,176.5,88.6,176.9,88.6,177.7z"/>
			<path class="st2" d="M91.8,175.8c0,0.7-0.3,1.4-0.9,1.9c-0.5,0.3-0.9-0.1-0.9-0.9c0-0.7,0.3-1.4,0.9-1.9
				C91.4,174.6,91.8,175,91.8,175.8z"/>
			<path class="st2" d="M95,174c0,0.7-0.3,1.4-0.9,1.9c-0.5,0.3-0.9-0.1-0.9-0.9c0-0.8,0.3-1.5,0.9-1.9C94.6,172.8,95,173.2,95,174z
				"/>
			<g class="st20">
				<path class="st1" d="M85.9,254.7C85.9,254.7,85.9,254.7,85.9,254.7c-0.2-0.2-0.3-0.3-0.4-0.5c-0.1-0.3-0.2-0.5-0.2-0.8v-70.8
					l-2.5-1.5V252c0,0.3,0.1,0.6,0.2,0.8c0,0.1,0.1,0.2,0.2,0.3c0.1,0.1,0.2,0.2,0.3,0.2l0.2,0.1l0.9,0.5l0.4,0.2l0,0
					c0.1,0,0.2,0.1,0.3,0.1l0,0l0.5,0.3L85.9,254.7L85.9,254.7z"/>
			</g>
			<path class="st3" d="M128.8,164.9c0,0.1,0,0.2-0.1,0.3l-1.1,2.4l0,0.1l0,0c0,0-0.1,0-0.1,0c0,0,0-0.1,0-0.1v-0.8
				c0-0.1,0-0.2,0-0.2c0-0.1,0.1-0.1,0.1-0.2l0.6-1.3l-0.6-0.6c0,0-0.1-0.1-0.1-0.1c0-0.1,0-0.1,0-0.2v-0.8c0-0.1,0-0.1,0-0.2
				c0,0,0-0.1,0.1-0.1l0,0c0,0,0,0,0,0l1.1,1c0.1,0.1,0.1,0.1,0.1,0.2V164.9z"/>
			<path class="st3" d="M126.6,169.2C126.6,169.3,126.6,169.3,126.6,169.2c0,0.1,0,0.2,0,0.2c0,0,0,0.1-0.1,0.1l-0.4,0.2
				c-0.1,0-0.2,0-0.2,0c0,0-0.1-0.1-0.1-0.1l-2-6.1c0,0,0,0,0-0.1c0-0.1,0-0.1,0-0.2c0,0,0-0.1,0.1-0.1l0.4-0.3c0.1,0,0.2,0,0.2,0
				c0,0,0.1,0.1,0.1,0.1L126.6,169.2z"/>
			<path class="st3" d="M121.6,168.4c0-0.1,0-0.2,0.1-0.3l1.1-2.4c0,0,0-0.1,0.1-0.1l0,0c0,0,0.1,0,0.1,0c0,0,0,0.1,0,0.1v0.8
				c0,0.1,0,0.2,0,0.2c0,0.1,0,0.1-0.1,0.2l-0.6,1.2l0.6,0.6c0,0,0.1,0.1,0.1,0.1c0,0.1,0,0.1,0,0.2v0.8c0,0.1,0,0.1,0,0.2
				c0,0,0,0.1-0.1,0.1l0,0c0,0,0,0-0.1,0l-1.1-1c-0.1-0.1-0.1-0.1-0.1-0.2V168.4z"/>
			<path class="st3" d="M118.9,171.8c0,0,0.1,0,0.1,0c0,0,0,0.1,0,0.1v0.8c0,0.1,0,0.1,0,0.2c0,0.1-0.1,0.1-0.1,0.1l-0.5,0.3
				c0,0-0.1,0-0.1,0c0,0,0-0.1,0-0.1v-0.9c0-0.1,0-0.1,0-0.2c0-0.1,0.1-0.1,0.1-0.1L118.9,171.8z"/>
			<path class="st3" d="M117.1,172.8c0,0,0.1,0,0.1,0c0,0,0.1,0.1,0,0.1v0.8c0,0.1,0,0.1,0,0.2c0,0.1-0.1,0.1-0.1,0.1l-0.5,0.3
				c0,0-0.1,0-0.1,0c0,0,0-0.1,0-0.1v-0.9c0-0.1,0-0.1,0-0.2c0-0.1,0.1-0.1,0.1-0.1L117.1,172.8z"/>
			<path class="st3" d="M115.3,173.9c0,0,0.1,0,0.1,0c0,0,0.1,0.1,0,0.1v0.9c0,0.1,0,0.1,0,0.2c0,0.1-0.1,0.1-0.1,0.1l-0.5,0.3
				c0,0-0.1,0-0.1,0c0,0,0-0.1,0-0.1v-0.9c0-0.1,0-0.1,0-0.2c0-0.1,0.1-0.1,0.1-0.1L115.3,173.9z"/>
			<path class="st3" d="M128.9,171.5c0,0.4-0.2,0.7-0.6,0.9l-26.4,15.2c-0.3,0.2-0.6,0.1-0.6-0.3c0-0.4,0.2-0.7,0.6-0.9l26.4-15.2
				C128.6,171,128.9,171.1,128.9,171.5z"/>
			<path class="st0" d="M120.4,191c0,0.4-0.2,0.7-0.6,0.9l-26.4,15.2c-0.3,0.2-0.6,0.1-0.6-0.3c0-0.4,0.2-0.7,0.6-0.9l26.4-15.2
				C120.1,190.5,120.4,190.6,120.4,191z"/>
			<path class="st0" d="M120.4,200.8c0,0.4-0.2,0.7-0.6,0.9l-12.6,7.3c-0.3,0.2-0.6,0.1-0.6-0.3c0-0.4,0.2-0.7,0.6-0.9l12.6-7.3
				C120.1,200.3,120.4,200.4,120.4,200.8z"/>
			<path class="st3" d="M100.3,187.9c0,0.4-0.2,0.7-0.6,0.9l-10.5,6c-0.3,0.2-0.6,0.1-0.6-0.3c0-0.4,0.2-0.7,0.6-0.9l10.5-6
				C100.1,187.5,100.3,187.6,100.3,187.9z"/>
			<path class="st3" d="M128.9,225.2c0,0.4-0.2,0.7-0.6,0.9l-26.4,15.2c-0.3,0.2-0.6,0.1-0.6-0.3c0-0.4,0.2-0.7,0.6-0.9l26.4-15.2
				C128.6,224.7,128.9,224.8,128.9,225.2z"/>
			<path class="st3" d="M100.3,241.6c0,0.4-0.2,0.7-0.6,0.9l-10.5,6c-0.3,0.2-0.6,0.1-0.6-0.3c0-0.4,0.2-0.7,0.6-0.9l10.5-6
				C100.1,241.2,100.3,241.3,100.3,241.6z"/>
			<path class="st3" d="M100.3,227c0,0.4-0.2,0.7-0.6,0.9l-10.5,6c-0.3,0.2-0.6,0.1-0.6-0.3c0-0.4,0.2-0.7,0.6-0.9l10.5-6
				C100.1,226.6,100.3,226.7,100.3,227z"/>
			<path class="st3" d="M100.3,231.9c0,0.4-0.2,0.7-0.6,0.9l-10.5,6c-0.3,0.2-0.6,0.1-0.6-0.3c0-0.4,0.2-0.7,0.6-0.9l10.5-6
				C100.1,231.4,100.3,231.6,100.3,231.9z"/>
			<path class="st3" d="M109.3,221.8c0,0.4-0.2,0.7-0.6,0.9l-5.9,3.4c-0.3,0.2-0.6,0.1-0.6-0.3c0-0.4,0.2-0.7,0.6-0.9l5.9-3.4
				C109,221.4,109.3,221.5,109.3,221.8z"/>
			<path class="st3" d="M128.9,176.3c0,0.4-0.2,0.7-0.6,0.9l-15.4,8.9c-0.3,0.2-0.6,0.1-0.6-0.3c0-0.4,0.2-0.7,0.6-0.9l15.4-8.9
				C128.6,175.9,128.9,176,128.9,176.3z"/>
			<path class="st16" d="M128.9,176.3c0,0.4-0.2,0.7-0.6,0.9l-15.4,8.9c-0.3,0.2-0.6,0.1-0.6-0.3c0-0.4,0.2-0.7,0.6-0.9l15.4-8.9
				C128.6,175.9,128.9,176,128.9,176.3z"/>
			<path class="st3" d="M128.9,181.2c0,0.4-0.2,0.7-0.6,0.9l-5.2,3c-0.3,0.2-0.6,0.1-0.6-0.3c0-0.4,0.2-0.7,0.6-0.9l5.2-3
				C128.6,180.8,128.9,180.9,128.9,181.2z"/>
			<path class="st16" d="M128.9,181.2c0,0.4-0.2,0.7-0.6,0.9l-5.2,3c-0.3,0.2-0.6,0.1-0.6-0.3c0-0.4,0.2-0.7,0.6-0.9l5.2-3
				C128.6,180.8,128.9,180.9,128.9,181.2z"/>
			<path class="st3" d="M128.9,186.1c0,0.4-0.2,0.7-0.6,0.9l-5.2,3c-0.3,0.2-0.6,0.1-0.6-0.3c0-0.4,0.2-0.7,0.6-0.9l5.2-3
				C128.6,185.6,128.9,185.8,128.9,186.1z"/>
			<path class="st16" d="M128.9,186.1c0,0.4-0.2,0.7-0.6,0.9l-5.2,3c-0.3,0.2-0.6,0.1-0.6-0.3c0-0.4,0.2-0.7,0.6-0.9l5.2-3
				C128.6,185.6,128.9,185.8,128.9,186.1z"/>
			<path class="st3" d="M128.9,191c0,0.4-0.2,0.7-0.6,0.9l-5.2,3c-0.3,0.2-0.6,0.1-0.6-0.3c0-0.4,0.2-0.7,0.6-0.9l5.2-3
				C128.6,190.5,128.9,190.6,128.9,191z"/>
			<path class="st16" d="M128.9,191c0,0.4-0.2,0.7-0.6,0.9l-5.2,3c-0.3,0.2-0.6,0.1-0.6-0.3c0-0.4,0.2-0.7,0.6-0.9l5.2-3
				C128.6,190.5,128.9,190.6,128.9,191z"/>
			<path class="st21" d="M120.4,195.9c0,0.4-0.2,0.7-0.6,0.9l-15.4,8.9c-0.3,0.2-0.6,0.1-0.6-0.3c0-0.4,0.2-0.7,0.6-0.9l15.4-8.9
				C120.1,195.4,120.4,195.5,120.4,195.9z"/>
			<path class="st21" d="M102.8,206c0,0.4-0.2,0.7-0.6,0.9l-6.7,3.9c-0.3,0.2-0.6,0.1-0.6-0.3c0-0.4,0.2-0.7,0.6-0.9l6.7-3.9
				C102.6,205.5,102.8,205.7,102.8,206z"/>
			<path class="st16" d="M120.4,195.9c0,0.4-0.2,0.7-0.6,0.9l-15.4,8.9c-0.3,0.2-0.6,0.1-0.6-0.3c0-0.4,0.2-0.7,0.6-0.9l15.4-8.9
				C120.1,195.4,120.4,195.5,120.4,195.9z"/>
			<path class="st16" d="M102.8,206c0,0.4-0.2,0.7-0.6,0.9l-6.7,3.9c-0.3,0.2-0.6,0.1-0.6-0.3c0-0.4,0.2-0.7,0.6-0.9l6.7-3.9
				C102.6,205.5,102.8,205.7,102.8,206z"/>
			<path class="st3" d="M128.9,195.9c0,0.4-0.2,0.7-0.6,0.9l-5.2,3c-0.3,0.2-0.6,0.1-0.6-0.3c0-0.4,0.2-0.7,0.6-0.9l5.2-3
				C128.6,195.4,128.9,195.5,128.9,195.9z"/>
			<path class="st16" d="M128.9,195.9c0,0.4-0.2,0.7-0.6,0.9l-5.2,3c-0.3,0.2-0.6,0.1-0.6-0.3c0-0.4,0.2-0.7,0.6-0.9l5.2-3
				C128.6,195.4,128.9,195.5,128.9,195.9z"/>
			<path class="st3" d="M111.3,186.5c0,0.4-0.2,0.7-0.6,0.9l-6.7,3.9c-0.3,0.2-0.6,0.1-0.6-0.3c0-0.4,0.2-0.7,0.6-0.9l6.7-3.9
				C111,186,111.3,186.1,111.3,186.5z"/>
			<path class="st16" d="M111.3,186.5c0,0.4-0.2,0.7-0.6,0.9l-6.7,3.9c-0.3,0.2-0.6,0.1-0.6-0.3c0-0.4,0.2-0.7,0.6-0.9l6.7-3.9
				C111,186,111.3,186.1,111.3,186.5z"/>
			<path class="st12" d="M114.1,209.3c0,0.4-0.2,0.7-0.6,0.9l-15.4,8.9c-0.3,0.2-0.6,0.1-0.6-0.3c0-0.4,0.2-0.7,0.6-0.9l15.4-8.9
				C113.8,208.8,114.1,209,114.1,209.3z"/>
			<path class="st12" d="M105.1,219.3c0,0.4-0.2,0.7-0.6,0.9l-15.4,8.9c-0.3,0.2-0.6,0.1-0.6-0.3c0-0.4,0.2-0.7,0.6-0.9l15.4-8.9
				C104.9,218.9,105.2,219,105.1,219.3z"/>
			<path class="st12" d="M96.5,219.4c0,0.4-0.2,0.7-0.6,0.9l-6.7,3.9c-0.3,0.2-0.6,0.1-0.6-0.3c0-0.4,0.2-0.7,0.6-0.9l6.7-3.9
				C96.2,219,96.5,219.1,96.5,219.4z"/>
			<path class="st0" d="M96.5,238.8c0,0.4-0.2,0.7-0.6,0.9l-6.7,3.9c-0.3,0.2-0.6,0.1-0.6-0.3c0-0.4,0.2-0.7,0.6-0.9l6.7-3.9
				C96.2,238.3,96.5,238.4,96.5,238.8z"/>
			<path class="st3" d="M120.4,186.1c0,0.4-0.2,0.7-0.6,0.9l-15.4,8.9c-0.3,0.2-0.6,0.1-0.6-0.3c0-0.4,0.2-0.7,0.6-0.9l15.4-8.9
				C120.1,185.6,120.4,185.8,120.4,186.1z"/>
			<path class="st16" d="M120.4,186.1c0,0.4-0.2,0.7-0.6,0.9l-15.4,8.9c-0.3,0.2-0.6,0.1-0.6-0.3c0-0.4,0.2-0.7,0.6-0.9l15.4-8.9
				C120.1,185.6,120.4,185.8,120.4,186.1z"/>
			<path class="st3" d="M102.8,196.3c0,0.4-0.2,0.7-0.6,0.9l-6.7,3.9c-0.3,0.2-0.6,0.1-0.6-0.3c0-0.4,0.2-0.7,0.6-0.9l6.7-3.9
				C102.6,195.8,102.8,195.9,102.8,196.3z"/>
			<path class="st16" d="M102.8,196.3c0,0.4-0.2,0.7-0.6,0.9l-6.7,3.9c-0.3,0.2-0.6,0.1-0.6-0.3c0-0.4,0.2-0.7,0.6-0.9l6.7-3.9
				C102.6,195.8,102.8,195.9,102.8,196.3z"/>
		</g>
		<g id="freepik--Mouse--inject-11">
			<path class="st7" d="M206.9,246l-19.2-10.4c-3.5-1.5-7.5-1.4-10.9,0.3l-4.7,2.7c-3,1.8-3.1,4.8-0.4,6.8l15.5,11.4
				c3.1,2,7.1,2.2,10.4,0.5l9.4-5.4C210.1,250.2,210,247.5,206.9,246z"/>
			<path class="st1" d="M171.5,240.5l10.6-6.1c0.7-0.4,6.3,0.2,13.3,1.6l4.3,0.9c2.7,0.5,5.1,2.1,6.8,4.3l0.3,0.4
				c0.1,0.1,0.1,0.2,0.2,0.3c1.8,2.8,0.9,6.5-1.9,8.3h0l0,0l-8.4,4.9c-1.2,0.6-2.5,0.9-3.8,0.8c-0.9,0-1.7-0.3-2.5-0.6l-7.9-6.2
				L171.5,240.5L171.5,240.5z"/>
			<path class="st3" d="M193.9,235.7l-1.1-0.2l-5.7,3.3l-8.3-2.6l-0.8,0.5l8.3,2.6l-9.5,5.5l0.6,0.5L193.9,235.7z"/>
			<path class="st8" d="M190.2,255.1c0.8,0.4,1.7,0.6,2.5,0.6v-0.2c0-4.6-2.8-8.8-7.1-10.5l-3.5-1.4c-5.3-2.1-9.8-3.4-10.5-3.2h-0.1
				c0,0-0.1,0.1,0,0.1v1.2l10.2,7.4l7.6,5.5l0,0l0,0L190.2,255.1z"/>
		</g>
	</g>
</g>
<g id="freepik--Plant--inject-11">
	<g id="freepik--Pot--inject-11">
		<path class="st3" d="M170.3,405.8c-0.1,0.1-0.3,0.3-0.4,0.4c-0.3,0.3-0.6,0.6-0.9,0.8l-0.3,0.2c-0.2,0.2-0.5,0.4-0.7,0.6
			c-0.5,0.3-0.9,0.6-1.4,0.9l0,0c-8.5,5-22.4,5-30.9,0c-0.5-0.3-0.9-0.6-1.3-0.9c-0.3-0.2-0.5-0.4-0.8-0.6l-0.3-0.2
			c-0.3-0.3-0.6-0.5-0.9-0.8c-0.1-0.1-0.2-0.2-0.4-0.4l-0.3-0.3c-10.3-10.7-16.5-54.3-6.3-62.8h51.5c10.1,8.5,4,52.1-6.4,62.8
			C170.4,405.6,170.4,405.7,170.3,405.8z"/>
		<g class="st14">
			<path class="st12" d="M170.3,405.8c-0.1,0.1-0.3,0.3-0.4,0.4c-0.3,0.3-0.6,0.6-0.9,0.8l-0.3,0.2c-0.2,0.2-0.5,0.4-0.7,0.6
				c-0.5,0.3-0.9,0.6-1.4,0.9l0,0c-8.5,5-22.4,5-30.9,0c-0.5-0.3-0.9-0.6-1.3-0.9c-0.3-0.2-0.5-0.4-0.8-0.6l-0.3-0.2
				c-0.3-0.3-0.6-0.5-0.9-0.8c-0.1-0.1-0.2-0.2-0.4-0.4l-0.3-0.3c-10.3-10.7-16.5-54.3-6.3-62.8h51.5c10.1,8.5,4,52.1-6.4,62.8
				C170.4,405.6,170.4,405.7,170.3,405.8z"/>
		</g>
		<path class="st3" d="M172.4,339.3c11.8,6.9,11.8,18,0,24.9s-30.8,6.9-42.6,0s-11.8-18,0-24.9S160.6,332.5,172.4,339.3z"/>
		<g class="st22">
			<path class="st12" d="M172.4,339.3c11.8,6.9,11.8,18,0,24.9s-30.8,6.9-42.6,0s-11.8-18,0-24.9S160.6,332.5,172.4,339.3z"/>
		</g>
		<path class="st3" d="M166.7,342.6c8.6,5,8.6,13.3,0,18.3s-22.6,5-31.3,0s-8.6-13.3,0-18.3C144.1,337.6,158.1,337.6,166.7,342.6z"
			/>
		<g class="st23">
			<path d="M166.7,342.6c8.6,5,8.6,13.3,0,18.3s-22.6,5-31.3,0s-8.6-13.3,0-18.3C144.1,337.6,158.1,337.6,166.7,342.6z"/>
		</g>
		<path class="st10" d="M171.9,356.1c-1.3,2-3.1,3.7-5.2,4.8c-8.6,5-22.6,5-31.3,0c-2.1-1.1-3.9-2.8-5.2-4.8c1.3-2,3.1-3.6,5.2-4.8
			c8.6-5,22.6-5,31.3,0C168.8,352.4,170.6,354.1,171.9,356.1z"/>
		<g id="freepik--Plants--inject-11">
			<path class="st3" d="M153.1,333.6c-1.2,2.8-2.2,5.7-3,8.6l-3.7,10.9c-0.6,1.7,0.6,3-1.1,3.9c-2.3,0.9-4.8,1.5-7.3,1.7
				c-6.2,0.2-11.2-2.8-14.9-7c-5.6-6.5-4.4-11.7-2.4-17.9c2.2-6.9-1.4-7.4-7.1-10.9s-5.7-9.8-0.9-15s4.2-6.8,2-11.7
				s-2.4-11.5,5.2-11.8c3.6-0.2,6.9,1.8,9.5,4.1c1.3,1.1,2.5,2.4,3.5,3.8c0.9,1.3,1.3,2.7,2.8,3.5c1.2,0.6,2.5,1,3.9,1.1
				c2.5,0.3,4.9,0.9,7.3,1.9c2.4,1,4.2,2.9,5,5.4c0.7,2.6-0.2,5.4-0.6,8c-0.2,0.7-0.2,1.4,0,2.1c0.4,1.2,1.8,1.8,2.8,2.5
				c2.5,1.9,3.3,5.5,2.7,8.7c-0.3,1.3-0.7,2.6-1.3,3.8C154.6,330.7,153.8,332.1,153.1,333.6z"/>
			<g class="st24">
				<path d="M153.1,333.6c-1.2,2.8-2.2,5.7-3,8.6l-3.7,10.9c-0.6,1.7,0.6,3-1.1,3.9c-2.3,0.9-4.8,1.5-7.3,1.7
					c-6.2,0.2-11.2-2.8-14.9-7c-5.6-6.5-4.4-11.7-2.4-17.9c2.2-6.9-1.4-7.4-7.1-10.9s-5.7-9.8-0.9-15s4.2-6.8,2-11.7
					s-2.4-11.5,5.2-11.8c3.6-0.2,6.9,1.8,9.5,4.1c1.3,1.1,2.5,2.4,3.5,3.8c0.9,1.3,1.3,2.7,2.8,3.5c1.2,0.6,2.5,1,3.9,1.1
					c2.5,0.3,4.9,0.9,7.3,1.9c2.4,1,4.2,2.9,5,5.4c0.7,2.6-0.2,5.4-0.6,8c-0.2,0.7-0.2,1.4,0,2.1c0.4,1.2,1.8,1.8,2.8,2.5
					c2.5,1.9,3.3,5.5,2.7,8.7c-0.3,1.3-0.7,2.6-1.3,3.8C154.6,330.7,153.8,332.1,153.1,333.6z"/>
			</g>
			<path class="st12" d="M145.2,357C145.2,357,145.2,357,145.2,357c0.3,0,0.6-0.3,0.6-0.6c0.3-37.9-20.6-60.5-20.8-60.8
				c-0.2-0.2-0.6-0.2-0.8,0c-0.2,0.2-0.2,0.6,0,0.8c0.2,0.2,20.8,22.6,20.5,60c0,0.2,0.1,0.5,0.4,0.5L145.2,357z"/>
			<path class="st12" d="M139.7,321.9C139.7,321.9,139.7,321.9,139.7,321.9c0.2-0.3,0.1-0.6-0.2-0.8c-6.9-4.3-18.6-7.4-19.1-7.5
				c0,0,0,0,0,0c-0.3-0.1-0.6,0.1-0.7,0.4c-0.1,0.3,0.1,0.6,0.4,0.7c0.1,0,12.1,3.2,18.8,7.4l0.1,0
				C139.3,322.3,139.5,322.2,139.7,321.9z"/>
			<path class="st12" d="M137,317c0.3,0.1,0.6,0,0.7-0.3c1.5-3.6,3.5-7,6-10.1c0.2-0.2,0.2-0.6-0.1-0.8c0,0,0,0,0,0
				c-0.2-0.2-0.6-0.2-0.8,0.1c-2.5,3.2-4.6,6.7-6.2,10.4C136.5,316.5,136.7,316.9,137,317L137,317C137,317,137,317,137,317z"/>
			<path class="st3" d="M137.8,340.3c0.1-5.3,1.9-10.4,5-14.6c1.4,7.4,7.7,11.5,7.7,11.5c-2.8-3.6-4.8-10-5.4-14.2
				c1.1-2.2,2.6-4.1,4.5-5.7c2.5-2.3,7.3-4,7.3-4c0.1,3.7,1.3,7.3,3.5,10.3c0,0-1.5-7.9,0-10.9s14.2-5.9,18.4-6.4s6.2-1.3,7.2,4.1
				s2.1,17.4,1.3,17.4c-10.4,1.3-16.3,5.5-16.3,5.5c11.9-1.5,17,2.3,17,2.3c1,9.2-4.4,11.2-4.4,11.2c-5.9-1.1-11.9-1.3-17.9-0.4
				c5.9,0.4,16.1,4.5,16.1,4.5s-5.8,8.8-15.2,10.8c-5.4,1.3-11.1,1.1-16.4-0.6C142.2,356.7,138,349.8,137.8,340.3z"/>
			<path class="st25" d="M137.8,340.3c0.1-5.3,1.9-10.4,5-14.6c1.4,7.4,7.7,11.5,7.7,11.5c-2.8-3.6-4.8-10-5.4-14.2
				c1.1-2.2,2.6-4.1,4.5-5.7c2.5-2.3,7.3-4,7.3-4c0.1,3.7,1.3,7.3,3.5,10.3c0,0-1.5-7.9,0-10.9s14.2-5.9,18.4-6.4s6.2-1.3,7.2,4.1
				s2.1,17.4,1.3,17.4c-10.4,1.3-16.3,5.5-16.3,5.5c11.9-1.5,17,2.3,17,2.3c1,9.2-4.4,11.2-4.4,11.2c-5.9-1.1-11.9-1.3-17.9-0.4
				c5.9,0.4,16.1,4.5,16.1,4.5s-5.8,8.8-15.2,10.8c-5.4,1.3-11.1,1.1-16.4-0.6C142.2,356.7,138,349.8,137.8,340.3z"/>
			<path class="st12" d="M148.8,360.2C148.8,360.2,148.8,360.2,148.8,360.2c-0.3,0-0.5-0.3-0.5-0.6c1.4-18.2,21.7-46.5,30.7-52.2
				c0.3-0.1,0.6-0.1,0.7,0.2c0.2,0.3,0.1,0.6-0.2,0.8c-8.8,5.6-28.8,33.5-30.2,51.4c0,0.2-0.1,0.4-0.3,0.5
				C149,360.2,148.9,360.2,148.8,360.2z"/>
		</g>
	</g>
</g>
<g id="freepik--Character--inject-11">
	<g id="freepik--character--inject-11">
		<path class="st26" d="M310.2,352.4c-5.5-1-11.6-2.1-15.2-5.1s-0.1-5.1,3.4-4.9h0.1c1.1,0.2,2.2,0.4,3.3,0.5
			c6.5,0.8,12.4,2.3,14.2-1l1.9-8.5c2.3,1.3,4.8,2.3,7.3,3.1c6.7,1.8,7.8,0.7,7.8,0.7s-3.2,11.6-3.2,11.8
			C328.5,355.6,316.8,353.7,310.2,352.4z"/>
		<path class="st8" d="M330.5,362.5c0.2,0.3-0.6,2.8-1.3,3.9c-3.9,2.5-7.7,2-11.5,1.1s-6.9-2.8-10.1-3.8s-10.2-1.1-15.9-3.8
			s-8.9-7.1-9-8.4c-0.2-1.2,0-2.4,0.5-3.6C283.2,348,329.8,361.8,330.5,362.5z"/>
		<path class="st3" d="M319,348.4c9.8,4.1,10.9-0.1,10.9-0.1c2.6-0.3,1.6,12.6,0.6,14.2c-1,1.6-4.8,3.1-10.8,2.4
			c-4.6-0.5-7.4-2.8-12.4-4c-3.8-1-9.2-1.1-15.2-3.3c-2.4-0.9-5.3-3.6-6.7-5.1c-4.8-5.4-1.8-9.6,1.7-10.8s9.4,0.6,14.7,1.2
			c5.5,0.6,10.7,1.8,13.2,0.1C314.8,344,314.7,346.6,319,348.4z"/>
		<path class="st6" d="M319,348.4c9.8,4.1,10.9-0.1,10.9-0.1c2.6-0.3,1.6,12.6,0.6,14.2c-1,1.6-4.8,3.1-10.8,2.4
			c-4.6-0.5-7.4-2.8-12.4-4c-3.8-1-9.2-1.1-15.2-3.3c-2.4-0.9-5.3-3.6-6.7-5.1c-4.8-5.4-1.8-9.6,1.7-10.8s9.4,0.6,14.7,1.2
			c5.5,0.6,10.7,1.8,13.2,0.1C314.8,344,314.7,346.6,319,348.4z"/>
		<path class="st27" d="M299.2,350.6c0.8,0.2,1-0.3,1-0.3c1.3-6.4,5-6.9,5-6.9c-0.6-0.5-1.5-0.6-2.2-0.3c-4,1.4-4.6,6.9-4.6,6.9
			C298.3,350.4,298.9,350.5,299.2,350.6z"/>
		<path class="st27" d="M305,350.9C305,350.9,305,350.9,305,350.9c-0.2,0.5-0.6,0.7-1.1,0.6c-0.9-0.2-0.9-0.9-0.9-0.9
			c0.6-5.7,3.6-7,3.6-7c0.3-0.2,0.7-0.2,1.1-0.1c0.9,0.2,0.9,0.4,0.9,0.4C305.6,344.9,305,350.9,305,350.9z"/>
		<path class="st27" d="M309.7,351c0,0,0.1,0.9-1,0.8s-1-0.9-1-0.9c0-4.8,2.2-7,2.2-7s0.2-0.4,1.1-0.4c0.7,0,0.9,0.3,0.9,0.3
			C310.1,344.9,309.7,351,309.7,351z"/>
		<path class="st1" d="M355.5,276.6l-21.9,63.2c-9.2,3.5-17.6-4.1-17.6-4.1s13-50.7,17.9-65.5L355.5,276.6z"/>
		<path class="st26" d="M275.6,370.6c-5.6-0.9-11.5-1.8-15.3-4.7s-0.3-5.1,3.3-5h0.1c1.1,0.2,2.3,0.3,3.3,0.4
			c6.5,0.6,12,1.7,13.7-1.6l2.9-9.9c0,0,3.2,3.7,6.6,4.5c6.8,1.6,10.7-0.6,10.7-0.6s-3.8,10.3-4.8,11.8
			C292.3,371,282.2,371.6,275.6,370.6z"/>
		<path class="st8" d="M296.8,379.4c0.3,0.3-0.5,3-1.3,4.2c-4.1,2.8-8.2,2.4-12.3,1.5s-7.4-2.8-11-3.8s-11-0.9-17.2-3.7
			c-6.1-2.7-9.7-7.4-9.8-8.7c-0.2-1.3-0.1-2.6,0.4-3.8C245.6,365.1,296.1,378.7,296.8,379.4z"/>
		<path class="st3" d="M280.3,358.4c0.2-0.1,0.5-0.3,0.6-0.1c0.1,0.1,0.2,0.2,0.2,0.4c0.1,0.8,0.3,1.6,0.7,2.3
			c0.7,0.8,1.5,1.5,2.5,1.9c0.3,0.1,0.6,0.3,0.8,0.6c0.1,0.2,0.2,0.5,0.3,0.8c0.1,0.5,0.2,1,0.3,1.5c0.1,0.6,0.3,1.1,0.7,1.5
			c0.4,0.2,0.8,0.4,1.2,0.4c1.5,0,3-0.2,4.5-0.6c0.8-0.2,1.6-0.4,2.4-0.8c0.5-0.3,1-0.7,1.4-1.1c0.4-0.4,0.7-0.8,0.9-1.2
			c1.2-0.1,1.4,2.1,0.7,5.5c-0.8,4-0.1,9-0.7,10c-1.1,1.8-5.1,3.5-11.5,2.9c-5-0.5-8-2.8-13.4-4c-4.2-0.9-10.7-0.4-17-3.1
			c-2.7-1.4-5.1-3.2-7.1-5.4c-5.3-5.6-1.9-10.2,1.9-11.6s10.2,0.4,15.8,0.9c2.7,0.2,5.5,0.7,8.2,0.8c1.1,0.1,2.2,0,3.3-0.1
			c0.5,0,0.9-0.1,1.4-0.3c0.4-0.2,0.8-0.5,1.2-0.8L280.3,358.4z"/>
		<path class="st6" d="M280.3,358.4c0.2-0.1,0.5-0.3,0.6-0.1c0.1,0.1,0.2,0.2,0.2,0.4c0.1,0.8,0.3,1.6,0.7,2.3
			c0.7,0.8,1.5,1.5,2.5,1.9c0.3,0.1,0.6,0.3,0.8,0.6c0.1,0.2,0.2,0.5,0.3,0.8c0.1,0.5,0.2,1,0.3,1.5c0.1,0.6,0.3,1.1,0.7,1.5
			c0.4,0.2,0.8,0.4,1.2,0.4c1.5,0,3-0.2,4.5-0.6c0.8-0.2,1.6-0.4,2.4-0.8c0.5-0.3,1-0.7,1.4-1.1c0.4-0.4,0.7-0.8,0.9-1.2
			c1.2-0.1,1.4,2.1,0.7,5.5c-0.8,4-0.1,9-0.7,10c-1.1,1.8-5.1,3.5-11.5,2.9c-5-0.5-8-2.8-13.4-4c-4.2-0.9-10.7-0.4-17-3.1
			c-2.7-1.4-5.1-3.2-7.1-5.4c-5.3-5.6-1.9-10.2,1.9-11.6s10.2,0.4,15.8,0.9c2.7,0.2,5.5,0.7,8.2,0.8c1.1,0.1,2.2,0,3.3-0.1
			c0.5,0,0.9-0.1,1.4-0.3c0.4-0.2,0.8-0.5,1.2-0.8L280.3,358.4z"/>
		<path class="st27" d="M262.9,367.5c0.9,0.1,1.1-0.3,1.1-0.3c1.1-6.9,5.1-7.6,5.1-7.6c-0.7-0.5-1.6-0.6-2.4-0.3
			c-4.3,1.7-4.7,7.5-4.7,7.5C262,367.3,262.6,367.4,262.9,367.5z"/>
		<path class="st27" d="M269.1,367.6C269.1,367.6,269.1,367.7,269.1,367.6c-0.2,0.5-0.7,0.8-1.1,0.6c-1-0.2-1-0.9-1-0.9
			c0.5-6.1,3.6-7.6,3.6-7.6c0.4-0.2,0.8-0.2,1.2-0.2c1,0.2,1,0.4,1,0.4C269.6,361.2,269.1,367.6,269.1,367.6z"/>
		<path class="st27" d="M274.2,367.6c0,0,0.2,1-1,0.9s-1.1-0.9-1.1-0.9c-0.1-5.1,2.1-7.5,2.1-7.5s0.2-0.4,1.2-0.4c0.8,0,1,0.3,1,0.3
			C274.4,361,274.2,367.6,274.2,367.6z"/>
		<path class="st2" d="M314.7,286l10,6.2l-25.1,65.1c-10.4,0.6-18.5-6.6-18.5-6.6c4.5-17.3,14.4-51.1,18.2-63L314.7,286z"/>
		<path class="st2" d="M383.6,448.4V343.8c0-0.9-0.7-1.6-1.6-1.6c-0.9,0-1.6,0.7-1.6,1.6v104.6l0,0c0,0.9,0.7,1.6,1.6,1.6
			C382.9,450,383.6,449.3,383.6,448.4z"/>
		<path class="st2" d="M447.3,411.8c0.8-0.3,1.2-1.3,0.9-2.1l-32.1-81.1c0-0.1-0.1-0.2-0.1-0.3c-0.4-0.8-1.4-1.1-2.2-0.7
			c-0.8,0.4-1.1,1.4-0.7,2.2l32.1,81.2c0.3,0.6,0.8,1,1.5,1C446.9,412,447.1,411.9,447.3,411.8z"/>
		<path class="st2" d="M442.8,402.2c0.4,0,0.8-0.2,1.1-0.4c0.7-0.6,0.7-1.7,0.1-2.3l-60.9-64.4c-0.3-0.3-0.7-0.5-1.2-0.5l0,0
			c-0.4,0-0.9,0.2-1.2,0.5L320,399.2c-0.5,0.6-0.5,1.6,0.1,2.2c0.6,0.7,1.6,0.7,2.3,0.1l59.6-62.9l59.7,63.1
			C442,402,442.4,402.2,442.8,402.2L442.8,402.2z"/>
		<path class="st2" d="M318.7,411l32.1-81.2c0.1-0.1,0.1-0.3,0.2-0.4c0.2-0.9-0.3-1.8-1.2-2c-0.9-0.2-1.8,0.3-2,1.2l-32.1,81.2
			c-0.3,0.8,0.1,1.8,0.9,2.1c0.2,0.1,0.4,0.1,0.6,0.1C317.9,412,318.5,411.6,318.7,411z"/>
		<path class="st3" d="M319.5,316.2c2.6,7.4,34.9,28.5,47.9,30.2s80.3-36.3,80.3-36.3s-45-27.3-60-35c-10.8-5.5-19.4-5.9-27.8-2
			c-10.1,4.8-19.8,10.2-29.1,16.4c-10.1,6.8-15.4,11.9-14.2,18.5C316.5,307.9,316.9,308.8,319.5,316.2z"/>
		<g class="st28">
			<path d="M319.5,316.2c2.6,7.4,34.9,28.5,47.9,30.2s80.3-36.3,80.3-36.3s-45-27.3-60-35c-10.8-5.5-19.4-5.9-27.8-2
				c-10.1,4.8-19.8,10.2-29.1,16.4c-10.1,6.8-15.4,11.9-14.2,18.5C316.5,307.9,316.9,308.8,319.5,316.2z"/>
		</g>
		<path class="st3" d="M373.3,348.9l-6.9,1c-8.8-1.7-18.2-6.2-31.3-15.2c-13-9-16-12.8-17.3-16.2s-1.4-10.6-1.4-10.6
			s3.5,9.6,21.6,21.3c16,10.4,26.1,17.9,35.7,9.1"/>
		<path class="st5" d="M373.9,338.4l-0.5,10.5l-6.9,1c-8.8-1.7-18.2-6.2-31.3-15.2c-13-9-16-12.8-17.3-16.2s-1.4-10.6-1.4-10.6
			s3.5,9.6,21.6,21.3C354.1,339.6,364.2,347.2,373.9,338.4z"/>
		<path class="st3" d="M440.8,400.7l4.6,10.7v0.1l0,0c0.1,0.2,0.3,0.4,0.5,0.5c0.9,0.4,1.9,0.3,2.7-0.1c0.3-0.2,0.5-0.4,0.6-0.8
			c0-0.1,0-0.1,0-0.2c0-0.1,0-0.2-0.1-0.3l-5-11.4L440.8,400.7z"/>
		<path class="st3" d="M322.9,400.9l-3.9,10.5v0.2l0,0c-0.1,0.2-0.3,0.4-0.5,0.5c-0.8,0.4-1.8,0.4-2.6,0c-0.3-0.1-0.5-0.4-0.6-0.7
			v-0.2c0-0.1,0-0.2,0-0.3l4.3-11.2L322.9,400.9z"/>
		<path class="st3" d="M380.1,440.3v9.3c0,0.3,0.2,0.6,0.5,0.8c0.8,0.4,1.8,0.4,2.7,0c0.3-0.1,0.5-0.4,0.5-0.8v-9.3
			C382.7,439.7,381.3,439.7,380.1,440.3z"/>
		<path class="st1" d="M373.3,292.8C353.8,290.5,329,281,329,281s0.9-3.6,2.8-10.8c1.5-6.1,3.7-8.6,8.8-10.2s17.2-0.1,32.1,1.9
			c9.3,1.3,44.2,11.3,48,6.8C420.7,268.7,392.9,295.1,373.3,292.8z"/>
		<path class="st2" d="M384.1,291.5c0,0-39.1-15.9-56.9-19.9c-14.6-3.2-22.4-1.8-27.8,16c-0.4,1.3,3.3,3.4,7.3,6.3
			s43.9,32.6,63.1,38.9c19.5,6.5,49.9-9.9,55.9-16.3c8.9-9.4,5.5-26.5,1.6-41.3L384.1,291.5z"/>
		<polygon class="st26" points="358.7,164.4 373.8,185.4 352.1,195.7 338.7,180.5 		"/>
		<path class="st29" d="M321.6,162c0,0-3.9-0.8-4.5-1.6s4.9-8.8,4.9-8.8L321.6,162z"/>
		<path class="st8" d="M315.5,150.3c0-3.6,2.9-6.6,6.6-6.6s6.6,2.9,6.6,6.6s-2.9,6.6-6.6,6.6C318.4,156.9,315.5,154,315.5,150.3z
			 M322.1,145c-2.9,0-5.3,2.4-5.4,5.3c0,0,0,0,0,0c0,3,2.4,5.4,5.4,5.4c3,0,5.4-2.4,5.4-5.4C327.4,147.4,325,145,322.1,145
			L322.1,145z"/>
		<path class="st26" d="M365.5,135.2c7.3,6,5.2,20.3-2,30.7c-6.1,8.8-18.7,13-24.3,14.4c-4.5,1.2-13.3,0.7-14.8-1
			c-2.3-2.4-4-8.1-2.5-25.9c1.4-17.1,4.6-21.8,15.4-23.8C341.7,128.9,355.3,126.7,365.5,135.2z"/>
		<path class="st29" d="M339.9,176.3c-2.2,1.4-4.6,2.5-7.2,3.2c-2.5,0.7-5.2,0.8-7.8,0.3c2.1,1.2,9.2,1.8,13.8,0.8L339.9,176.3z"/>
		<path class="st8" d="M314.9,127.4c0.1-1.3,0.6-2.5,1.6-3.4c1.1-0.8,2.6-1.2,3.9-0.9c1.4,0.3,2.7,0.8,3.9,1.4
			c-0.8-1.6-0.9-3.4-0.3-5c0.1-0.9,0.6-1.8,1.3-2.4c1-0.5,2.1-0.5,3.1,0c1.8,0.7,3.4,1.7,5.1,2.5c8.3,3.6,17.2-1.8,25.8,0.3
			c6.2,1.6,11.6,4.8,12.5,11.8c9.5,4.3,9.5,18.2,1.6,32.7c-2.9,5.3-10.6,12-16,13.8c-8.5,2.8-14.5-0.9-14.5-0.9
			c-4.1-5.4-3.6-13.1-3.6-13.1s3.3,1.7,6.9-2.5s3-11.4-2.5-12.4c-3.4-0.6-5,1.6-6.8,4c-2.5,3.3-4.7-2.7-5.3-4.6
			c-0.9-2.8-1.8-5.6-1.5-8.5c-3.6-0.6-7.3-1.4-10.3-3.5l0,0C316.9,134.6,314.6,131.1,314.9,127.4z"/>
		<path class="st8" d="M371.9,133.8c-0.9-1.8-0.2-4.1,1.7-5c1.8-0.9,4.1-0.2,5,1.7l-6.5,3.6C372,134,371.9,133.9,371.9,133.8z"/>
		
			<rect x="326.1" y="140.8" transform="matrix(0.1834 -0.983 0.983 0.1834 117.8652 444.7011)" class="st8" width="1" height="21.3"/>
		<path class="st26" d="M294.2,192.3c0.9,0.6,1.9,1,3,1.2c3.4,0.8,6.2,3.7,8.3,6.4c0.3,0.4,0.7,1,0.4,1.5c-0.5,0.9-2.9,0.4-3.8,0.5
			c-1.2,0-2.4,0.2-3.6,0.5c-1.1,0.4-1.7,1.5-1.3,2.6c0.5,0.7,1.2,1.2,2.1,1.4c2.3,0.8,4.6,1.3,7,1.8c3.4,0.5,6.5,0.5,9.6,2.4
			c2.1,1.4,4.2,3,6.1,4.7l12.5-11.1c-1.8-1.1-3.6-2.2-5.5-3.4c-5.2-3.3-9.2-10.3-14.5-13.5c-1.3-0.8-2.6-1.4-4-2
			c-0.7-0.3-1.5-0.5-2.2-0.7c-2.2-0.6-4.5-0.4-6.7,0.4c-1.9,0.8-3.4,2.3-5.3,3c-1,0.4-2.3,0.6-2.9,1.5
			C292.9,190.4,293.2,191.7,294.2,192.3z"/>
		<path class="st3" d="M409.5,224.5c0,0-8.2-32.5-12.2-40.9c-4.3-9.3-16.4-13.9-29.6-6.7C367.7,177,405.5,232,409.5,224.5z"/>
		<path class="st3" d="M343.4,185.9c-3.2,1.4-6.4,3-9.4,4.8c-11.6,6.9-7.3,25.6-1.7,33.9c6.4,9.5,14.9,22.7,18.6,28.6
			c5.7,9.2,5.8,27.8,5.8,27.8c7.8,18.7,32.9,21.7,50.9,14.5c17-6.7,19.5-20.1,19.5-20.1c-0.1-29.9-6.7-58.2-19.4-77.9
			c-11.7-18.3-25.1-27.6-40-20.5l2,2.6C371.1,183.8,354,189.4,343.4,185.9z"/>
		<path class="st30" d="M343.4,185.9c-3.2,1.4-6.4,3-9.4,4.8c-11.6,6.9-7.3,25.6-1.7,33.9c6.4,9.5,14.9,22.7,18.6,28.6
			c5.7,9.2,5.8,27.8,5.8,27.8c7.8,18.7,32.9,21.7,50.9,14.5c17-6.7,19.5-20.1,19.5-20.1c-0.1-29.9-6.7-58.2-19.4-77.9
			c-11.7-18.3-25.1-27.6-40-20.5l1.9,2.7C371,183.8,354,189.4,343.4,185.9z"/>
		<path class="st31" d="M327.7,212.8L327.7,212.8c0.2,0.8,0.3,1.6,0.5,2.3l0,0c0.2,0.7,0.4,1.4,0.7,2.1v0.1v0.1
			c0.1,0.4,0.3,0.7,0.4,1.1c0,0.1,0.1,0.2,0.1,0.3c0.1,0.4,0.3,0.8,0.5,1.1v0.1v0.1c0.2,0.4,0.4,0.8,0.5,1.2c0,0.1,0.1,0.2,0.1,0.2
			l0.4,0.9l0.2,0.3l0.4,0.7l0.2,0.3c0.2,0.3,0.4,0.6,0.6,0.9l0,0c0.2,0.4,0.5,0.7,0.7,1.1c0.6,0.9,1.2,1.7,1.8,2.6l0,0
			c1.8,2.7,3.6,5.5,5.4,8.2l0.9,1.3c1.9,2.9,3.7,5.7,5.3,8.2c0,0,0,0.1,0,0.1c0,0.1,0.1,0.1,0.1,0.2c0.8,1.2,1.5,2.3,2.1,3.3
			l0.1,0.2l0,0c0.7,1.3,1.4,2.4,2,3.3c5.7,9.2,5.8,27.8,5.8,27.8c7.8,18.7,32.9,21.7,50.9,14.5c17-6.7,19.5-20.1,19.5-20.1
			c0-7.2-0.5-14.3-1.5-21.4c-0.2-1.6-0.5-3.2-0.8-4.9c0-0.1,0-0.2,0-0.3c-0.3-1.6-0.6-3.3-0.9-4.9c0-0.1,0-0.1,0-0.2
			c-0.3-1.6-0.7-3.3-1.1-4.8c-0.4-1.6-0.8-3.1-1.2-4.7l0,0c-5.8-2.7-12.5,3.3-16.8,7.9c-4.9,5.3-8.3,12.9-12.3,19
			c-2.5,3.8-6.8,9.4-11.4,9.1c-3.7-0.3-6.5-6.3-8.5-9.5c-5-7.8-9.3-16.5-15.3-23.7c-5.6-6.8-13.1-11.8-19.2-18.1
			c-4.7-5-8.6-10.8-11.3-17.2l0,0c-0.5,3.6-0.3,7.3,0.5,10.9L327.7,212.8z"/>
		<path class="st26" d="M257,228.9c-1.3-2-2-4.4-1.8-6.8c0.1-1.1,0.3-2.2,0.7-3.2c0.3-1,1-1.9,1.3-2.9c0.1-1.1,0.2-2.3,0.1-3.4
			c0.1-1.1,1.3-3.1,2.5-3.2c0.5,0,1,0.1,1.3,0.5c0.3,0.3,0.6,0.7,0.9,1.1c3,4.4,6.9,8,11.5,10.7c-0.4-1.3-0.8-2.6-1.2-4
			c-0.3-1.2-1-2.3-0.3-3.5c0.3-0.5,0.8-0.9,1.5-0.9c0.6,0.1,1.1,0.4,1.4,0.9c2.2,1.9,4.2,4.1,5.9,6.5c0.9,1.3,1.4,2.8,2.2,4.2
			c0.8,1.6,1.8,3.1,2.9,4.5c1.6,2,4.4,2.8,6.7,3.9c6,3,12.2,5.7,18.6,7.9c0,0,4.8-22.2,7.7-33.4c2.5-9.4,5.4-11.2,13.3-15.7
			c18,10,13.3,19,10,29.8c-2.2,7.2-4.4,14.4-6.6,21.6c-1.5,4.8-2.9,9.7-4.7,14.5c-3.6,9.7-7,9.6-13,7.8c-7.4-2.4-14.4-5.6-21-9.7
			c-6.5-4.1-14.2-8.8-19.2-12.1c-6.2-4-11.5-6-16.1-10.1c-1.1-1-2.2-2.1-3.1-3.2C257.8,230.2,257.4,229.6,257,228.9z"/>
		<path class="st3" d="M342.3,225.4l-6.3,20.2c-5.4,1.5-11.3,0.7-16.1-2.2c-8.3-4.9-8.3-8.4-8.3-8.4s3.4-16.8,6.5-27.3
			c3.1-10.5,8.1-13.6,14.9-16.4C353.5,198.3,342.3,225.4,342.3,225.4z"/>
		<path class="st3" d="M373.8,338.4c10.2-11.1,15-31.8,22.4-54.5c9.8-30.2,22.2-38.6,38-47.2c5.5-3,12.9-6.3,17.4-2.6l0,0l4.4,3.8
			l-1.7,0.3c0.6,1.7,1,3.4,1.2,5.2c1.7,15.8-3.1,52.4-10.1,65s-25,20.7-49.2,30.8c-13.1,5.4-17.4,9.5-22.9,9.8"/>
		<path class="st32" d="M455.5,243.4c1.7,15.8-3.1,52.4-10.1,65s-25,20.7-49.2,30.8c-13.1,5.4-17.4,9.5-22.9,9.8l0.5-10.5
			c10.2-11.1,15-31.8,22.4-54.5c9.8-30.2,22.2-38.6,38-47.2c5.5-3,12.9-6.3,17.4-2.6l0,0l4.4,3.8l-1.7,0.3
			C454.9,239.8,455.3,241.6,455.5,243.4z"/>
		<path class="st3" d="M460,247.2c1.7,15.8-3.1,52.4-10.1,65c-1.3,2.3-9.3,8.4-22.6,15.8c-6.8,3.8-17.1,10.4-25.6,13.9
			c-26.7,11.3-35.4,7.8-35.4,7.8c19.3-5.2,24.6-31.9,34.4-62s22.2-38.6,38-47.2C446.7,236.3,458.3,231.4,460,247.2z"/>
	</g>
</g>
<g>
	<g id="freepik--speech-bubble--inject-11">
		<path class="st3" d="M356.5,102.8L356.5,102.8c0.1-0.1,0.2-0.2,0.3-0.3l4.6-8v-6.2l-10.8-6.2v6.2l3.5,10.2l-4.3,8.2L356.5,102.8z"
			/>
		<path class="st33" d="M356.5,102.8L356.5,102.8c0.1-0.1,0.2-0.2,0.3-0.3l4.6-8v-6.2l-10.8-6.2v6.2l3.5,10.2l-4.3,8.2L356.5,102.8z
			"/>
		<path class="st3" d="M324.2,77.1c0.1,2.3,1.3,4.3,3.2,5.6l16.6,9.6l4.9,14.1c0.1,0.2,0.2,0.3,0.3,0.4c0.3,0.2,0.7,0.1,0.9-0.3
			l4.6-8l12.9,7.5c2,1,4.4,1,6.5,0l2.6-1.5c1.9-1.2,3.1-3.3,3.2-5.6V54.5c-0.1-2.3-1.3-4.3-3.2-5.6l-40.3-23.3c-2-1-4.4-1-6.4,0
			l-2.6,1.5c-1.9,1.2-3.1,3.3-3.2,5.6V77.1z"/>
		<path class="st33" d="M380,54.5c0-1.1-0.4-2.2-0.9-3.2l-9.1,5.2c0.6,1,0.9,2.1,1,3.2v44.3c0,1.8-1.2,2.7-2.7,2.1
			c1.9,0.8,4.1,0.7,5.9-0.3l2.6-1.5c1.9-1.2,3.1-3.3,3.2-5.6V54.5z"/>
		<path class="st13" d="M327.4,27.2l2.6-1.5c2-1,4.4-1,6.4,0l40.3,23.3c0.9,0.6,1.7,1.4,2.3,2.4l-9.1,5.2c-0.5-1-1.3-1.8-2.3-2.4
			l-40.3-23.3c-1.5-0.8-2.7-0.4-3.1,1C324.6,29.9,325.8,28.2,327.4,27.2z"/>
		<g id="freepik----inject-11">
			<path class="st12" d="M365,78.6c0,0.3,0,0.5-0.2,0.7c-0.1,0.1-0.3,0.3-0.5,0.3l-8.8,4c0,0-0.1,0-0.1,0h-0.1
				c-0.1-0.1-0.3-0.2-0.3-0.4c-0.1-0.2-0.1-0.4-0.1-0.6v-3.9c0-0.4,0.1-0.7,0.3-0.8c0.1-0.1,0.3-0.2,0.4-0.2l4.5-2.1l-4.5-6.9
				c-0.2-0.2-0.3-0.5-0.4-0.8c-0.2-0.4-0.3-0.7-0.3-1.1v-5.5c0-0.2,0-0.3,0.1-0.4c0.1-0.1,0.2-0.1,0.3,0l0.1,0.1
				c0.1,0,0.1,0.1,0.1,0.2l8.8,14.2c0.2,0.3,0.3,0.6,0.5,0.9c0.1,0.3,0.2,0.6,0.2,0.9V78.6z"/>
			<path class="st12" d="M353.2,86.8c0,0.1,0,0.2,0,0.3c0,0.2,0,0.3-0.1,0.4c-0.1,0.1-0.2,0.1-0.3,0l-2.9-1.7
				c-0.3-0.2-0.5-0.4-0.6-0.7c-0.1-0.3-0.2-0.6-0.3-0.8l-7.4-31.5c0-0.1,0-0.2,0-0.3c0-0.2,0-0.3,0.1-0.4c0.1-0.1,0.2-0.1,0.3,0
				l2.9,1.7c0.3,0.2,0.5,0.4,0.6,0.7c0.1,0.3,0.2,0.6,0.3,0.9L353.2,86.8z"/>
			<path class="st12" d="M329.8,58.9c-0.1-0.4,0.2-0.9,0.6-1l8.8-4h0.1h0.1c0.1,0.1,0.3,0.2,0.3,0.4c0.1,0.2,0.1,0.4,0.1,0.6v5.5
				c0,0.4-0.1,0.7-0.3,0.8c-0.1,0.1-0.3,0.2-0.5,0.2l-3.8,1.5l3.8,5.9c0.1,0.2,0.3,0.4,0.4,0.7c0.2,0.3,0.3,0.7,0.3,1.1v5.5
				c0,0.2,0,0.3-0.1,0.4c-0.1,0.1-0.2,0.1-0.3,0l-0.1-0.1c-0.1,0-0.1-0.1-0.1-0.2l-8.8-14.2c-0.2-0.3-0.3-0.6-0.5-0.9
				c-0.1-0.3-0.2-0.6-0.2-0.9L329.8,58.9z"/>
		</g>
	</g>
</g>
</svg>
